<svg width="37" height="37" viewBox="0 0 37 37" fill="none" xmlns="http://www.w3.org/2000/svg">
<path d="M18.5 32.3365L16.9198 30.9104C14.1962 28.4181 11.948 26.2661 10.175 24.4547C8.40212 22.6432 6.98893 21.0245 5.93546 19.5984C4.88199 18.1724 4.14327 16.8813 3.71931 15.725C3.29535 14.5688 3.08337 13.3997 3.08337 12.2177C3.08337 9.90521 3.86063 7.9717 5.41515 6.41719C6.96966 4.86268 8.89032 4.08542 11.1771 4.08542C12.6417 4.08542 13.9971 4.43229 15.2433 5.12604C16.4895 5.81979 17.575 6.82188 18.5 8.13229C19.5792 6.74479 20.7226 5.72344 21.9303 5.06823C23.1379 4.41302 24.4355 4.08542 25.823 4.08542C28.1098 4.08542 30.0304 4.86268 31.5849 6.41719C33.1395 7.9717 33.9167 9.90521 33.9167 12.2177C33.9167 13.3997 33.7047 14.5688 33.2808 15.725C32.8568 16.8813 32.1181 18.1724 31.0646 19.5984C30.0112 21.0245 28.598 22.6432 26.825 24.4547C25.0521 26.2661 22.8039 28.4181 20.0802 30.9104L18.5 32.3365ZM18.5 29.2917C21.0952 26.9021 23.2342 24.853 24.9172 23.1443C26.6002 21.4356 27.9363 19.9389 28.9256 18.6542C29.9148 17.3694 30.6085 16.226 31.0068 15.224C31.4051 14.2219 31.6042 13.2198 31.6042 12.2177C31.6042 10.5219 31.0646 9.12795 29.9855 8.03594C28.9063 6.94393 27.5188 6.39792 25.823 6.39792C24.5125 6.39792 23.2921 6.80261 22.1615 7.61198C21.0309 8.42136 20.1188 9.55834 19.425 11.0229H17.5365C16.8684 9.58403 15.9691 8.45347 14.8386 7.63125C13.708 6.80903 12.4875 6.39792 11.1771 6.39792C9.48129 6.39792 8.09379 6.94393 7.01462 8.03594C5.93546 9.12795 5.39587 10.5219 5.39587 12.2177C5.39587 13.2198 5.59501 14.2283 5.99327 15.2432C6.39153 16.2582 7.08528 17.4144 8.07452 18.712C9.06376 20.0096 10.4063 21.5063 12.1021 23.2021C13.798 24.8979 15.9306 26.9278 18.5 29.2917Z" fill="black"/>
</svg>
