<svg width="36" height="36" viewBox="0 0 36 36" fill="none" xmlns="http://www.w3.org/2000/svg">
<path d="M26.7523 13.7891L19.4862 2.88998C19.1558 2.55971 18.6606 2.22943 18.1651 2.22943C17.6698 2.22943 17.1743 2.39456 16.844 2.88998L9.57798 13.7891H1.65138C0.660551 13.7891 0 14.4496 0 15.4404C0 15.6055 0 15.7708 0 15.9359L4.12844 31.2936C4.45872 32.6148 5.77981 33.7708 7.26606 33.7708H28.734C30.2202 33.7708 31.5413 32.7799 31.8715 31.2936L36 15.9359C36 15.7708 36 15.6055 36 15.4404C36 14.4496 35.3394 13.7891 34.3487 13.7891H26.7523ZM13.211 13.7891L18.1651 6.52301L23.1193 13.7891H13.211ZM18.1651 27.0001C16.3487 27.0001 14.8624 25.5138 14.8624 23.6974C14.8624 21.8808 16.3487 20.3946 18.1651 20.3946C19.9817 20.3946 21.4679 21.8808 21.4679 23.6974C21.4679 25.5138 19.9817 27.0001 18.1651 27.0001Z" fill="#212121"/>
</svg>
