<svg width="21" height="13" viewBox="0 0 21 13" fill="none" xmlns="http://www.w3.org/2000/svg">
<path d="M20.3636 10.9192C20.3636 10.8373 20.2818 10.8373 20.2818 10.7556C19.9547 10.1013 19.2186 9.28351 18.2372 8.38396C17.7466 7.97497 17.5012 7.64784 17.3377 7.48432C17.0923 7.15719 17.0923 6.91181 17.1742 6.58468C17.2559 6.3394 17.5831 5.93051 18.1555 5.19438C18.4826 4.78549 18.6461 4.54021 18.8915 4.29484C20.1183 2.65917 20.6907 1.59601 20.5272 1.10536L20.4454 1.0236C20.3636 0.941838 20.2818 0.859981 20.1183 0.859981C19.9547 0.778222 19.7094 0.778222 19.464 0.859981H16.3563C16.2745 0.859981 16.2745 0.859981 16.1109 0.859981C16.0292 0.859981 15.9474 0.859981 15.9474 0.859981H15.8656H15.7839L15.702 0.941838C15.6203 1.0236 15.6203 1.0236 15.6203 1.10536C15.2931 2.005 14.8842 2.74103 14.4753 3.55881C14.23 3.9677 13.9846 4.3766 13.7393 4.70373C13.4939 5.03087 13.3304 5.27624 13.1668 5.43976C13.0033 5.60337 12.8397 5.68513 12.7579 5.84865C12.6762 5.93051 12.5125 6.01227 12.5125 5.93051C12.4308 5.93051 12.349 5.93051 12.349 5.84865C12.2673 5.76689 12.1854 5.68513 12.1036 5.60337C12.0219 5.52152 12.0219 5.358 11.9401 5.19438C11.9401 5.03087 11.9401 4.86735 11.9401 4.78549C11.9401 4.70373 11.9401 4.45836 11.9401 4.29484C11.9401 4.04946 11.9401 3.88595 11.9401 3.80419C11.9401 3.55881 11.9401 3.23168 11.9401 2.90454C11.9401 2.57741 11.9401 2.33203 11.9401 2.16852C11.9401 2.005 11.9401 1.75962 11.9401 1.59601C11.9401 1.35073 11.9401 1.18711 11.9401 1.10536C11.9401 1.0236 11.8584 0.859981 11.8584 0.778222C11.7765 0.696463 11.6948 0.614703 11.613 0.532846C11.5312 0.451087 11.3676 0.451088 11.2859 0.369329C10.877 0.28757 10.3862 0.205811 9.81381 0.205811C8.50527 0.205811 7.60572 0.28757 7.27859 0.451088C7.11497 0.532945 6.95146 0.614704 6.8697 0.778222C6.70608 0.941838 6.70608 1.0236 6.78784 1.0236C7.19673 1.10536 7.52387 1.26887 7.68748 1.51425L7.76924 1.67786C7.851 1.75962 7.851 1.92314 7.93276 2.16852C8.01462 2.41389 8.01462 2.65917 8.01462 2.9863C8.01462 3.47705 8.01462 3.9677 8.01462 4.29484C8.01462 4.70373 7.93276 4.94911 7.93276 5.19438C7.93276 5.43976 7.851 5.60337 7.76924 5.68513C7.68748 5.84865 7.68748 5.93051 7.60572 5.93051C7.60572 5.93051 7.60572 6.01227 7.52387 6.01227C7.44211 6.01227 7.36035 6.09403 7.19673 6.09403C7.11497 6.09403 6.95146 6.01227 6.8697 5.93051C6.70608 5.84865 6.54256 5.68513 6.4607 5.52152C6.29719 5.358 6.13357 5.11262 5.97005 4.78549C5.80654 4.45836 5.56116 4.13132 5.39754 3.64057L5.23403 3.31344C5.15227 3.14992 4.98865 2.82278 4.82513 2.41389C4.66152 2.005 4.498 1.67786 4.33438 1.26897C4.25262 1.10536 4.17087 1.0236 4.08911 0.941838H4.00735C4.00735 0.941838 3.92549 0.859981 3.84373 0.859981C3.76197 0.859981 3.68021 0.778222 3.59836 0.778222H0.654259C0.327134 0.778222 0.163567 0.85998 0.0817882 0.941838L0 1.0236C0 1.0236 0 1.10536 0 1.18711C0 1.26897 9.59964e-06 1.35073 0.0817882 1.51425C0.490701 2.49565 0.981382 3.47705 1.47203 4.45836C1.96278 5.358 2.45344 6.17579 2.78057 6.74829C3.18946 7.3208 3.5166 7.89321 3.92549 8.38396C4.33438 8.87462 4.57976 9.20175 4.66152 9.36527C4.82513 9.52888 4.90689 9.61064 4.98865 9.6924L5.23403 9.93778C5.39754 10.1013 5.64292 10.3467 5.97005 10.592C6.29719 10.8373 6.70608 11.0827 7.11497 11.3281C7.52387 11.5733 8.01462 11.737 8.50527 11.9005C9.07778 12.0641 9.56843 12.1459 10.0591 12.0641H11.2859C11.5312 12.0641 11.6948 11.9823 11.8584 11.8187L11.9401 11.737C11.9401 11.6552 12.0219 11.6552 12.0219 11.5733C12.0219 11.4916 12.0219 11.4098 12.0219 11.2463C12.0219 10.9192 12.0219 10.6738 12.1036 10.4284C12.1854 10.1832 12.1855 10.0195 12.2673 9.85602C12.349 9.6924 12.4308 9.61064 12.5125 9.52888C12.5944 9.44703 12.6762 9.36527 12.6762 9.36527H12.7579C12.9214 9.28351 13.1668 9.36527 13.3304 9.52888C13.5757 9.6924 13.8211 9.93778 13.9846 10.1832C14.1482 10.4284 14.3936 10.6738 14.7207 11.0009C15.0479 11.3281 15.2931 11.5733 15.4567 11.6552L15.702 11.8187C15.8656 11.9005 16.0292 11.9823 16.2745 12.0641C16.5199 12.1459 16.6834 12.1459 16.8469 12.1459L19.6275 12.0641C19.8729 12.0641 20.1183 11.9823 20.2818 11.9005C20.4454 11.8187 20.5272 11.737 20.5272 11.5733C20.5272 11.4916 20.5272 11.3281 20.5272 11.2463C20.3636 11.0827 20.3636 11.0009 20.3636 10.9192Z" fill="white"/>
</svg>
