<svg width="20" height="18" viewBox="0 0 20 18" fill="none" xmlns="http://www.w3.org/2000/svg">
<path d="M0.51318 8.24888L5.04252 9.93774L6.80822 15.6186C6.88495 16.0025 7.34556 16.0792 7.6526 15.8489L10.1859 13.7762C10.4162 13.5459 10.8001 13.5459 11.1072 13.7762L15.6365 17.0772C15.9436 17.3075 16.4042 17.154 16.481 16.7701L19.8588 0.648851C19.9355 0.264979 19.5517 -0.118894 19.1679 0.0346748L0.51318 7.25083C0.0525727 7.4044 0.0525727 8.09531 0.51318 8.24888ZM6.57792 9.09326L15.4829 3.6428C15.6365 3.56597 15.7901 3.79627 15.6365 3.87311L8.34351 10.7055C8.11321 10.9358 7.88291 11.2428 7.88291 11.6267L7.6526 13.4691C7.6526 13.6994 7.26883 13.7762 7.19199 13.4691L6.27078 10.0913C6.04047 9.70744 6.19404 9.24683 6.57792 9.09326Z" fill="white"/>
</svg>
