<svg width="173" height="34" viewBox="0 0 173 34" fill="none" xmlns="http://www.w3.org/2000/svg">
<path d="M80.9633 8.65083C80.9633 9.35283 81.28 9.81271 81.6108 10.0237V11.2096C81.6108 11.7571 82.0544 12.2093 82.5925 12.2093C82.7062 12.873 82.8823 13.5345 83.3832 13.99C83.5542 14.1455 83.7461 14.2826 83.9576 14.3994L83.6845 15.5801L81.5809 15.9382C81.3005 15.8987 80.1341 15.7659 79.0656 16.1131C78.4531 16.312 77.8423 16.6924 77.5222 17.3698C77.2162 18.0171 77.2017 18.881 77.5692 19.9912C76.8268 21.6006 76.7999 23.2568 77.5517 24.5539C77.4483 24.8206 77.2859 25.3243 77.2491 25.9298C77.1935 26.8328 77.4397 28.0146 78.5432 28.916L78.545 28.9125C78.6108 28.9676 78.6929 28.9985 78.7783 29H93.222C93.3067 28.9989 93.3881 28.9681 93.4545 28.9134L93.4559 28.9146C94.5594 28.0131 94.8069 26.8314 94.7513 25.9283C94.714 25.3233 94.5513 24.82 94.4476 24.5531C95.2 23.2561 95.1736 21.6 94.4306 19.9904C94.7987 18.8801 94.7838 18.0157 94.4781 17.3684C94.1575 16.6909 93.5467 16.3105 92.9346 16.1116C91.7096 15.7137 90.4158 15.9464 90.4158 15.9464L88.3155 15.5801L88.0415 14.398C88.2536 14.2811 88.4459 14.1439 88.6168 13.9885C89.1178 13.5329 89.2938 12.8715 89.4075 12.2078C89.9456 12.2078 90.3893 11.7556 90.3893 11.2081V10.0916C90.4055 10.0738 90.4205 10.0542 90.4333 10.0335C90.5222 9.89186 90.8885 9.2797 91.0056 8.45561C91.1231 7.6315 90.947 6.56321 89.9734 5.72565C89.97 5.72216 89.9661 5.71984 89.9623 5.71635C89.5717 5.4016 89.1562 5.16904 88.5134 5.0725C88.2775 5.03715 88.242 5.1088 88.1668 5.14717C88.0932 5.18497 88.0236 5.22754 87.9552 5.27309C87.9437 5.25704 87.9317 5.24051 87.9189 5.22411C87.8577 5.14725 87.7761 5.01713 87.5364 5.00774C87.3966 5.00192 87.2547 5 87.1111 5C85.7203 5.00465 84.15 5.26913 82.7695 5.49461C82.0788 5.60753 81.5001 6.17474 81.3265 6.87653L80.9633 8.65083ZM88.46 5.86366C88.9301 5.94426 89.1673 6.06519 89.4874 6.32282C90.2593 6.98986 90.3491 7.70326 90.2576 8.34556C90.1999 8.74984 90.0546 9.1131 89.9401 9.34978C89.2383 8.94018 88.9741 8.13449 88.9741 8.13449C88.9118 7.93038 88.6989 7.81679 88.4993 7.88116C88.4437 7.89953 88.3933 7.93082 88.3518 7.97233C87.547 8.65153 86.061 9.05751 84.7651 9.25548C85.204 8.94751 85.6079 8.54383 85.8673 8.00927C85.9613 7.81797 85.8849 7.58536 85.6968 7.49056C85.5096 7.39544 85.2822 7.47349 85.1894 7.66475C84.8629 8.33722 84.1376 8.80683 83.4674 9.08962C82.8857 9.33499 82.3775 9.43688 82.2527 9.45979C82.2074 9.45398 82.113 9.43526 82.0126 9.37151C81.8774 9.28538 81.7287 9.15242 81.7211 8.68696L82.0608 7.06682C82.1468 6.71873 82.5861 6.30968 82.8892 6.26012C84.2786 6.03316 85.8263 5.79372 87.1243 5.79269C87.2106 5.79263 87.2957 5.79341 87.3799 5.79613L87.4671 5.98461C87.5406 6.18286 87.7573 6.28316 87.9522 6.20926L88.46 5.86366ZM88.4617 8.84309C88.6639 9.22014 89.0305 9.73473 89.6328 10.0592V11.2096C89.6328 11.3428 89.5396 11.4373 89.4093 11.4373C89.3806 11.4373 89.3563 11.435 89.3336 11.4257C89.0926 11.3378 88.8373 11.515 88.8288 11.7762C88.8066 12.4382 88.569 12.9992 88.1147 13.4123C87.6603 13.8253 86.9705 14.0991 85.9989 14.0991C85.0275 14.0991 84.3406 13.8253 83.8863 13.4123C83.432 12.9992 83.1935 12.4382 83.1712 11.7762C83.1635 11.5131 82.9054 11.3351 82.6635 11.4257C82.6447 11.4327 82.6216 11.4373 82.5908 11.4373C82.4605 11.4373 82.3677 11.3427 82.3677 11.2096V10.2333C82.6472 10.2287 83.6298 10.2031 84.7903 10.0328C86.0096 9.85372 87.4257 9.53253 88.4617 8.84309ZM87.3342 14.6912L87.6278 15.9706C87.6167 16.8524 87.3107 17.1796 86.97 17.3729C86.6225 17.5699 86.1994 17.5809 85.9989 17.5809C85.7985 17.5809 85.3775 17.5693 85.03 17.3729C84.6894 17.1796 84.3834 16.8524 84.3722 15.9706L84.6659 14.6919C85.0642 14.809 85.5096 14.8706 85.9989 14.8706C86.4888 14.8706 86.935 14.8087 87.3342 14.6912ZM90.8107 24.5381C90.7034 24.8947 90.4363 25.8719 90.4363 26.7727C90.4363 27.3501 90.5521 27.8647 90.6654 28.2293H81.3347C81.4475 27.8647 81.5637 27.3501 81.5637 26.7727C81.5637 25.8712 81.2941 24.8933 81.1864 24.5373C81.4432 23.8878 81.565 23.2903 81.6253 22.7068C82.5588 20.2344 82.2203 17.6267 82.0395 16.6431L83.6431 16.3709C83.7551 17.2328 84.1846 17.7773 84.6616 18.0477C85.2168 18.3625 85.7985 18.3529 85.9989 18.3529C86.1994 18.3529 86.7803 18.3634 87.3354 18.0477C87.8121 17.7774 88.2433 17.233 88.3561 16.3717L89.9606 16.6431C89.7798 17.6267 89.4413 20.2344 90.3739 22.7072C90.4329 23.2912 90.5539 23.8885 90.8107 24.5381ZM80.611 16.6619C80.8774 16.6585 81.109 16.6724 81.274 16.6853C81.3949 17.3249 81.6556 19.0713 81.3377 20.9125C81.059 20.1649 80.6508 19.7402 80.6508 19.7402C80.5795 19.6684 80.4833 19.6285 80.3828 19.6294C80.2828 19.6286 80.1862 19.6684 80.1148 19.7402C79.9661 19.8911 79.9661 20.1366 80.1148 20.2875C80.1148 20.2875 80.4508 20.6238 80.6761 21.3136C80.9013 22.0034 81.0035 23.0159 80.4358 24.3677C80.4 24.4547 80.3961 24.5519 80.4256 24.6414C80.4256 24.6414 80.8077 25.8518 80.8077 26.7727C80.8077 27.398 80.6414 27.9432 80.535 28.2293H78.9147C78.1017 27.5118 77.959 26.685 78.0022 25.9781C78.047 25.2429 78.3151 24.6927 78.3151 24.6927C78.3783 24.5641 78.3637 24.4174 78.2907 24.306L78.2924 24.3051C77.5761 23.2083 77.5581 21.7341 78.3151 20.188C78.3616 20.0929 78.3676 19.9824 78.3317 19.8827C77.9517 18.816 77.9966 18.1422 78.2031 17.7061C78.4091 17.27 78.8036 17.0106 79.2947 16.8512C79.7238 16.7117 80.2051 16.6675 80.611 16.6619ZM92.7054 16.8512C93.1962 17.0106 93.5907 17.27 93.7968 17.7061C94.0029 18.1422 94.0483 18.816 93.668 19.8827C93.6314 19.9864 93.6402 20.0963 93.6843 20.188C94.4422 21.7342 94.4239 23.2083 93.7073 24.3051C93.628 24.4274 93.6253 24.5791 93.6884 24.7002C93.7073 24.7394 93.9548 25.2705 93.9981 25.9781C94.0409 26.685 93.8985 27.5117 93.0851 28.2293H91.4651C91.3582 27.9432 91.1924 27.398 91.1924 26.7727C91.1924 25.8517 91.5719 24.6413 91.5719 24.6413C91.6023 24.5481 91.5963 24.4515 91.5608 24.3677C90.9932 23.0158 91.0988 22.0033 91.324 21.3136C91.5493 20.6238 91.8825 20.2875 91.8825 20.2875C92.0303 20.1366 92.0303 19.8911 91.8825 19.7402C91.7348 19.5906 91.4962 19.5906 91.3488 19.7402C91.3488 19.7402 90.9411 20.1649 90.662 20.9125C90.3448 19.0756 90.6047 17.3286 90.7256 16.6853C91.3633 16.6371 92.1353 16.6721 92.7054 16.8512ZM83.2007 20.8778C83.0417 20.8825 82.9028 20.9884 82.8528 21.1425C82.7878 21.3446 82.8951 21.5625 83.093 21.6295C83.7893 21.8664 84.8825 21.9575 85.9989 21.9575C87.1149 21.9575 88.2108 21.8664 88.907 21.6295C89.1049 21.5624 89.2122 21.3446 89.1468 21.1425C89.0814 20.9406 88.8677 20.8309 88.6698 20.8974C88.1625 21.07 87.0688 21.1854 85.9989 21.1854C84.9287 21.1854 83.8371 21.0702 83.3302 20.8974C83.2884 20.8828 83.2447 20.8766 83.2007 20.8778Z" fill="#EEEEEE"/>
<mask id="mask0_140_9" style="mask-type:alpha" maskUnits="userSpaceOnUse" x="0" y="6" width="173" height="27">
<path d="M11.5444 9.24036C11.4586 9.40607 11.3345 9.48891 11.1725 9.48891C11.0485 9.48891 10.8863 9.40119 10.6861 9.22574C10.4953 9.04054 10.2331 8.84073 9.89929 8.62628C9.56548 8.4021 9.14586 8.19741 8.6404 8.01221C8.14449 7.82701 7.52936 7.73441 6.79502 7.73441C6.06068 7.73441 5.41218 7.84164 4.8495 8.05607C4.29636 8.27052 3.82906 8.56293 3.44758 8.93332C3.07564 9.30372 2.78954 9.73256 2.58926 10.2199C2.39853 10.7073 2.30315 11.219 2.30315 11.7552C2.30315 12.4569 2.44621 13.0369 2.73231 13.495C3.02795 13.9531 3.4142 14.3431 3.89104 14.6647C4.36789 14.9863 4.90672 15.2593 5.50754 15.4834C6.1179 15.6979 6.74257 15.9123 7.38154 16.1268C8.02051 16.3412 8.6404 16.5801 9.24123 16.8432C9.85155 17.0967 10.3952 17.4183 10.8721 17.8081C11.3489 18.1981 11.7303 18.6806 12.0165 19.2557C12.3121 19.8209 12.46 20.5277 12.46 21.3756C12.46 22.2432 12.3121 23.0619 12.0165 23.832C11.7303 24.5922 11.3107 25.255 10.7576 25.8204C10.2044 26.3858 9.52729 26.8341 8.72623 27.1655C7.92514 27.4872 7.0096 27.6479 5.97962 27.6479C4.64445 27.6479 3.49526 27.4092 2.53204 26.9316C1.56882 26.4442 0.724802 25.7814 0 24.9431L0.400549 24.2998C0.514991 24.1536 0.648507 24.0805 0.801097 24.0805C0.886929 24.0805 0.996603 24.1389 1.13012 24.256C1.26364 24.373 1.42577 24.5192 1.6165 24.6946C1.80724 24.8603 2.03612 25.0455 2.30315 25.2502C2.57018 25.4451 2.88014 25.6303 3.233 25.8057C3.58586 25.9714 3.99119 26.1128 4.44896 26.2297C4.90672 26.3467 5.42648 26.4052 6.00823 26.4052C6.80933 26.4052 7.52459 26.2834 8.15403 26.0397C8.78345 25.7863 9.31275 25.4451 9.74189 25.0162C10.1806 24.5873 10.5144 24.0805 10.7433 23.4957C10.9722 22.901 11.0867 22.2675 11.0867 21.595C11.0867 20.864 10.9388 20.2645 10.6432 19.7966C10.357 19.319 9.97558 18.9242 9.49874 18.6123C9.02188 18.2906 8.47828 18.0226 7.86792 17.8081C7.2671 17.5937 6.6472 17.3842 6.00823 17.1794C5.36926 16.9747 4.7446 16.7457 4.13424 16.4923C3.53341 16.2389 2.99457 15.9173 2.51774 15.5273C2.04089 15.1277 1.65465 14.6355 1.359 14.0507C1.0729 13.456 0.929845 12.7152 0.929845 11.8282C0.929845 11.1362 1.05859 10.4685 1.31609 9.82523C1.57358 9.18188 1.95029 8.61654 2.44621 8.12918C2.94212 7.63207 3.55248 7.23731 4.27729 6.9449C5.01163 6.64273 5.8461 6.49165 6.78071 6.49165C7.82977 6.49165 8.76915 6.66222 9.59885 7.00338C10.4381 7.34453 11.201 7.866 11.8877 8.5678L11.5444 9.24036ZM17.5372 24.2413C17.8137 24.6605 18.0999 25.0162 18.3955 25.3086C18.7006 25.5913 19.0202 25.8252 19.354 26.0104C19.6878 26.1859 20.0406 26.3126 20.4126 26.3906C20.794 26.4685 21.1946 26.5076 21.6142 26.5076C22.4534 26.5076 23.1878 26.3516 23.8172 26.0397C24.4466 25.7278 24.9712 25.2891 25.3908 24.7238C25.8199 24.1487 26.1394 23.4664 26.3492 22.6769C26.5685 21.8776 26.6783 21.0003 26.6783 20.0451C26.6783 17.8813 26.2872 16.2925 25.5052 15.2787C24.7232 14.2553 23.6026 13.7436 22.1435 13.7436C21.1993 13.7436 20.3457 13.9922 19.5828 14.4893C18.8198 14.9863 18.138 15.6784 17.5372 16.5654V24.2413ZM17.48 15.4834C18.1094 14.6062 18.8438 13.9093 19.683 13.3927C20.5318 12.8761 21.4806 12.6178 22.5297 12.6178C24.275 12.6178 25.634 13.2367 26.6067 14.4746C27.5891 15.7125 28.0802 17.5694 28.0802 20.0451C28.0802 21.1076 27.9419 22.1019 27.6653 23.0278C27.3983 23.9441 26.9977 24.7433 26.4637 25.4256C25.9391 26.0982 25.2906 26.6294 24.5182 27.0193C23.7552 27.4092 22.8731 27.6041 21.8716 27.6041C20.9084 27.6041 20.074 27.4238 19.3682 27.0631C18.6625 26.7025 18.0521 26.1713 17.5372 25.4695V32.5605H16.1639V12.8663H16.922C17.1605 12.8663 17.2988 12.9882 17.3369 13.2318L17.48 15.4834ZM37.7293 12.6324C38.7498 12.6324 39.6606 12.8128 40.4617 13.1734C41.2723 13.5242 41.9542 14.0263 42.5073 14.6793C43.0605 15.3324 43.4801 16.1219 43.7662 17.0479C44.0619 17.9641 44.2096 18.9924 44.2096 20.1329C44.2096 21.2733 44.0619 22.3017 43.7662 23.2178C43.4801 24.1341 43.0605 24.9188 42.5073 25.5718C41.9542 26.2249 41.2723 26.7268 40.4617 27.0778C39.6606 27.4287 38.7498 27.6041 37.7293 27.6041C36.7089 27.6041 35.7934 27.4287 34.9828 27.0778C34.1817 26.7268 33.4998 26.2249 32.9371 25.5718C32.3839 24.9188 31.9595 24.1341 31.6639 23.2178C31.3778 22.3017 31.2347 21.2733 31.2347 20.1329C31.2347 18.9924 31.3778 17.9641 31.6639 17.0479C31.9595 16.1219 32.3839 15.3324 32.9371 14.6793C33.4998 14.0263 34.1817 13.5242 34.9828 13.1734C35.7934 12.8128 36.7089 12.6324 37.7293 12.6324ZM37.7293 26.5076C38.5781 26.5076 39.3172 26.3614 39.9466 26.069C40.5856 25.7668 41.1149 25.3379 41.5346 24.7823C41.9637 24.2267 42.2832 23.559 42.4931 22.7792C42.7028 21.9897 42.8078 21.1076 42.8078 20.1329C42.8078 19.1679 42.7028 18.2906 42.4931 17.5012C42.2832 16.7116 41.9637 16.0391 41.5346 15.4834C41.1149 14.9181 40.5856 14.4844 39.9466 14.1822C39.3172 13.8801 38.5781 13.7289 37.7293 13.7289C36.8806 13.7289 36.1367 13.8801 35.4977 14.1822C34.8683 14.4844 34.339 14.9181 33.9098 15.4834C33.4902 16.0391 33.1707 16.7116 32.9514 17.5012C32.7415 18.2906 32.6367 19.1679 32.6367 20.1329C32.6367 21.1076 32.7415 21.9897 32.9514 22.7792C33.1707 23.559 33.4902 24.2267 33.9098 24.7823C34.339 25.3379 34.8683 25.7668 35.4977 26.069C36.1367 26.3614 36.8806 26.5076 37.7293 26.5076ZM49.4916 16.3753C49.711 15.7808 49.959 15.2543 50.2355 14.7963C50.5217 14.3284 50.8459 13.9337 51.2083 13.612C51.5802 13.2903 51.9903 13.0467 52.4386 12.881C52.8963 12.7055 53.4018 12.6178 53.9549 12.6178C54.2505 12.6178 54.5414 12.647 54.8276 12.7055C55.1136 12.7543 55.3663 12.8469 55.5858 12.9832L55.4713 13.9483C55.4236 14.1042 55.333 14.1822 55.1995 14.1822C55.085 14.1822 54.9086 14.1481 54.6702 14.0799C54.4413 14.0116 54.1361 13.9775 53.7546 13.9775C53.2015 13.9775 52.7104 14.0652 52.2812 14.2407C51.8615 14.4064 51.4801 14.6598 51.1367 15.001C50.803 15.3422 50.5073 15.7661 50.2498 16.273C50.0019 16.7701 49.7729 17.3452 49.5632 17.9982V27.414H48.1899V12.8663H48.9195C49.0816 12.8663 49.196 12.9005 49.2627 12.9687C49.3295 13.0369 49.3724 13.1538 49.3915 13.3196L49.4916 16.3753ZM62.3383 27.6479C61.3751 27.6479 60.6218 27.3751 60.0781 26.8292C59.544 26.2834 59.277 25.4403 59.277 24.2998V14.3576H57.2313C57.1264 14.3576 57.0406 14.3284 56.9738 14.2699C56.9071 14.2114 56.8737 14.1286 56.8737 14.0214V13.4804L59.3056 13.305L59.649 8.09993C59.6681 8.01221 59.7062 7.93424 59.7634 7.866C59.8207 7.79777 59.9017 7.76365 60.0066 7.76365H60.6503V13.3196H65.1422V14.3576H60.6503V24.2267C60.6503 24.6263 60.698 24.9723 60.7933 25.2648C60.8983 25.5474 61.0366 25.7814 61.2082 25.9666C61.3895 26.1517 61.5993 26.2882 61.8377 26.3759C62.0761 26.4637 62.3336 26.5076 62.6101 26.5076C62.9535 26.5076 63.2491 26.4588 63.497 26.3614C63.745 26.2541 63.9596 26.142 64.1408 26.0251C64.3221 25.8984 64.4698 25.7863 64.5843 25.6888C64.6987 25.5816 64.7894 25.528 64.8561 25.528C64.9324 25.528 65.0087 25.5767 65.085 25.6742L65.4569 26.2882C65.0945 26.6976 64.6319 27.029 64.0693 27.2825C63.5161 27.5261 62.9392 27.6479 62.3383 27.6479ZM117.934 18.6708C117.934 17.891 117.824 17.1941 117.605 16.5801C117.395 15.9562 117.095 15.4299 116.704 15.001C116.313 14.5721 115.846 14.2455 115.302 14.0214C114.768 13.7874 114.176 13.6704 113.528 13.6704C112.794 13.6704 112.136 13.7874 111.554 14.0214C110.972 14.2553 110.467 14.5915 110.037 15.0302C109.618 15.4688 109.279 15.9952 109.022 16.6093C108.764 17.2233 108.593 17.9105 108.507 18.6708H117.934ZM108.435 19.5626V19.8405C108.435 20.9322 108.56 21.8922 108.808 22.7207C109.055 23.5493 109.408 24.2462 109.866 24.8116C110.324 25.3671 110.877 25.7863 111.525 26.069C112.174 26.3516 112.899 26.4929 113.7 26.4929C114.415 26.4929 115.035 26.415 115.559 26.259C116.084 26.0933 116.523 25.913 116.875 25.718C117.238 25.5133 117.524 25.333 117.734 25.1771C117.943 25.0114 118.097 24.9285 118.192 24.9285C118.316 24.9285 118.411 24.9773 118.478 25.0747L118.85 25.5426C118.62 25.835 118.316 26.1079 117.934 26.3614C117.562 26.6148 117.143 26.8341 116.676 27.0193C116.217 27.1948 115.722 27.3361 115.188 27.4433C114.663 27.5505 114.134 27.6041 113.6 27.6041C112.627 27.6041 111.74 27.4335 110.938 27.0924C110.138 26.7415 109.451 26.2346 108.878 25.5718C108.307 24.909 107.863 24.1 107.548 23.1448C107.243 22.1798 107.091 21.0784 107.091 19.8405C107.091 18.7975 107.234 17.8374 107.52 16.9602C107.816 16.0732 108.236 15.3128 108.779 14.6793C109.332 14.036 110.004 13.534 110.796 13.1734C111.597 12.8128 112.503 12.6324 113.514 12.6324C114.315 12.6324 115.059 12.7737 115.746 13.0564C116.432 13.3391 117.028 13.7533 117.533 14.2991C118.039 14.8353 118.435 15.4981 118.721 16.2876C119.016 17.0771 119.165 17.9836 119.165 19.0071C119.165 19.2215 119.136 19.3677 119.079 19.4457C119.021 19.5237 118.926 19.5626 118.792 19.5626H108.435ZM128.649 12.6324C129.669 12.6324 130.579 12.8128 131.381 13.1734C132.192 13.5242 132.873 14.0263 133.426 14.6793C133.98 15.3324 134.399 16.1219 134.685 17.0479C134.982 17.9641 135.129 18.9924 135.129 20.1329C135.129 21.2733 134.982 22.3017 134.685 23.2178C134.399 24.1341 133.98 24.9188 133.426 25.5718C132.873 26.2249 132.192 26.7268 131.381 27.0778C130.579 27.4287 129.669 27.6041 128.649 27.6041C127.629 27.6041 126.713 27.4287 125.902 27.0778C125.101 26.7268 124.418 26.2249 123.856 25.5718C123.303 24.9188 122.878 24.1341 122.582 23.2178C122.297 22.3017 122.154 21.2733 122.154 20.1329C122.154 18.9924 122.297 17.9641 122.582 17.0479C122.878 16.1219 123.303 15.3324 123.856 14.6793C124.418 14.0263 125.101 13.5242 125.902 13.1734C126.713 12.8128 127.629 12.6324 128.649 12.6324ZM128.649 26.5076C129.497 26.5076 130.237 26.3614 130.866 26.069C131.506 25.7668 132.034 25.3379 132.454 24.7823C132.883 24.2267 133.202 23.559 133.412 22.7792C133.622 21.9897 133.727 21.1076 133.727 20.1329C133.727 19.1679 133.622 18.2906 133.412 17.5012C133.202 16.7116 132.883 16.0391 132.454 15.4834C132.034 14.9181 131.506 14.4844 130.866 14.1822C130.237 13.8801 129.497 13.7289 128.649 13.7289C127.8 13.7289 127.056 13.8801 126.417 14.1822C125.787 14.4844 125.258 14.9181 124.828 15.4834C124.409 16.0391 124.089 16.7116 123.87 17.5012C123.66 18.2906 123.555 19.1679 123.555 20.1329C123.555 21.1076 123.66 21.9897 123.87 22.7792C124.089 23.559 124.409 24.2267 124.828 24.7823C125.258 25.3379 125.787 25.7668 126.417 26.069C127.056 26.3614 127.8 26.5076 128.649 26.5076ZM140.483 24.2413C140.759 24.6605 141.045 25.0162 141.341 25.3086C141.645 25.5913 141.965 25.8252 142.299 26.0104C142.633 26.1859 142.986 26.3126 143.357 26.3906C143.739 26.4685 144.139 26.5076 144.559 26.5076C145.398 26.5076 146.133 26.3516 146.763 26.0397C147.391 25.7278 147.916 25.2891 148.336 24.7238C148.765 24.1487 149.084 23.4664 149.294 22.6769C149.514 21.8776 149.623 21.0003 149.623 20.0451C149.623 17.8813 149.233 16.2925 148.45 15.2787C147.668 14.2553 146.548 13.7436 145.088 13.7436C144.144 13.7436 143.291 13.9922 142.528 14.4893C141.765 14.9863 141.083 15.6784 140.483 16.5654V24.2413ZM140.425 15.4834C141.055 14.6062 141.789 13.9093 142.628 13.3927C143.477 12.8761 144.426 12.6178 145.475 12.6178C147.22 12.6178 148.579 13.2367 149.551 14.4746C150.535 15.7125 151.025 17.5694 151.025 20.0451C151.025 21.1076 150.887 22.1019 150.61 23.0278C150.344 23.9441 149.943 24.7433 149.409 25.4256C148.884 26.0982 148.235 26.6294 147.463 27.0193C146.7 27.4092 145.818 27.6041 144.817 27.6041C143.854 27.6041 143.019 27.4238 142.314 27.0631C141.608 26.7025 140.997 26.1713 140.483 25.4695V32.5605H139.109V12.8663H139.867C140.105 12.8663 140.243 12.9882 140.282 13.2318L140.425 15.4834ZM156.54 6.14075V27.414H155.167V6.14075H156.54ZM171.481 18.6708C171.481 17.891 171.371 17.1941 171.152 16.5801C170.942 15.9562 170.641 15.4299 170.251 15.001C169.86 14.5721 169.393 14.2455 168.849 14.0214C168.315 13.7874 167.723 13.6704 167.075 13.6704C166.34 13.6704 165.682 13.7874 165.101 14.0214C164.519 14.2553 164.013 14.5915 163.584 15.0302C163.165 15.4688 162.826 15.9952 162.569 16.6093C162.311 17.2233 162.14 17.9105 162.054 18.6708H171.481ZM161.982 19.5626V19.8405C161.982 20.9322 162.106 21.8922 162.354 22.7207C162.602 23.5493 162.955 24.2462 163.412 24.8116C163.871 25.3671 164.424 25.7863 165.072 26.069C165.721 26.3516 166.445 26.4929 167.247 26.4929C167.961 26.4929 168.581 26.415 169.106 26.259C169.631 26.0933 170.069 25.913 170.422 25.718C170.784 25.5133 171.071 25.333 171.28 25.1771C171.49 25.0114 171.642 24.9285 171.738 24.9285C171.862 24.9285 171.957 24.9773 172.024 25.0747L172.396 25.5426C172.167 25.835 171.862 26.1079 171.481 26.3614C171.108 26.6148 170.69 26.8341 170.222 27.0193C169.764 27.1948 169.268 27.3361 168.735 27.4433C168.21 27.5505 167.68 27.6041 167.146 27.6041C166.174 27.6041 165.287 27.4335 164.485 27.0924C163.684 26.7415 162.997 26.2346 162.425 25.5718C161.853 24.909 161.41 24.1 161.095 23.1448C160.79 22.1798 160.638 21.0784 160.638 19.8405C160.638 18.7975 160.78 17.8374 161.067 16.9602C161.362 16.0732 161.781 15.3128 162.325 14.6793C162.878 14.036 163.551 13.534 164.342 13.1734C165.143 12.8128 166.05 12.6324 167.06 12.6324C167.861 12.6324 168.605 12.7737 169.292 13.0564C169.979 13.3391 170.575 13.7533 171.08 14.2991C171.586 14.8353 171.982 15.4981 172.267 16.2876C172.563 17.0771 172.711 17.9836 172.711 19.0071C172.711 19.2215 172.682 19.3677 172.625 19.4457C172.568 19.5237 172.472 19.5626 172.339 19.5626H161.982Z" fill="white"/>
</mask>
<g mask="url(#mask0_140_9)">
<path d="M11.5444 9.24036C11.4586 9.40607 11.3345 9.48891 11.1725 9.48891C11.0485 9.48891 10.8863 9.40119 10.6861 9.22574C10.4953 9.04054 10.2331 8.84073 9.89929 8.62628C9.56548 8.4021 9.14586 8.19741 8.6404 8.01221C8.14449 7.82701 7.52936 7.73441 6.79502 7.73441C6.06068 7.73441 5.41218 7.84164 4.8495 8.05607C4.29636 8.27052 3.82906 8.56293 3.44758 8.93332C3.07564 9.30372 2.78954 9.73256 2.58926 10.2199C2.39853 10.7073 2.30315 11.219 2.30315 11.7552C2.30315 12.4569 2.44621 13.0369 2.73231 13.495C3.02795 13.9531 3.4142 14.3431 3.89104 14.6647C4.36789 14.9863 4.90672 15.2593 5.50754 15.4834C6.1179 15.6979 6.74257 15.9123 7.38154 16.1268C8.02051 16.3412 8.6404 16.5801 9.24123 16.8432C9.85155 17.0967 10.3952 17.4183 10.8721 17.8081C11.3489 18.1981 11.7303 18.6806 12.0165 19.2557C12.3121 19.8209 12.46 20.5277 12.46 21.3756C12.46 22.2432 12.3121 23.0619 12.0165 23.832C11.7303 24.5922 11.3107 25.255 10.7576 25.8204C10.2044 26.3858 9.52729 26.8341 8.72623 27.1655C7.92514 27.4872 7.0096 27.6479 5.97962 27.6479C4.64445 27.6479 3.49526 27.4092 2.53204 26.9316C1.56882 26.4442 0.724802 25.7814 0 24.9431L0.400549 24.2998C0.514991 24.1536 0.648507 24.0805 0.801097 24.0805C0.886929 24.0805 0.996603 24.1389 1.13012 24.256C1.26364 24.373 1.42577 24.5192 1.6165 24.6946C1.80724 24.8603 2.03612 25.0455 2.30315 25.2502C2.57018 25.4451 2.88014 25.6303 3.233 25.8057C3.58586 25.9714 3.99119 26.1128 4.44896 26.2297C4.90672 26.3467 5.42648 26.4052 6.00823 26.4052C6.80933 26.4052 7.52459 26.2834 8.15403 26.0397C8.78345 25.7863 9.31275 25.4451 9.74189 25.0162C10.1806 24.5873 10.5144 24.0805 10.7433 23.4957C10.9722 22.901 11.0867 22.2675 11.0867 21.595C11.0867 20.864 10.9388 20.2645 10.6432 19.7966C10.357 19.319 9.97558 18.9242 9.49874 18.6123C9.02188 18.2906 8.47828 18.0226 7.86792 17.8081C7.2671 17.5937 6.6472 17.3842 6.00823 17.1794C5.36926 16.9747 4.7446 16.7457 4.13424 16.4923C3.53341 16.2389 2.99457 15.9173 2.51774 15.5273C2.04089 15.1277 1.65465 14.6355 1.359 14.0507C1.0729 13.456 0.929845 12.7152 0.929845 11.8282C0.929845 11.1362 1.05859 10.4685 1.31609 9.82523C1.57358 9.18188 1.95029 8.61654 2.44621 8.12918C2.94213 7.63207 3.55248 7.23731 4.27729 6.9449C5.01163 6.64273 5.8461 6.49165 6.78071 6.49165C7.82977 6.49165 8.76915 6.66222 9.59885 7.00338C10.4381 7.34453 11.201 7.866 11.8877 8.5678L11.5444 9.24036ZM17.5372 24.2413C17.8137 24.6605 18.0999 25.0162 18.3955 25.3086C18.7006 25.5913 19.0202 25.8252 19.354 26.0104C19.6878 26.1859 20.0406 26.3126 20.4126 26.3906C20.794 26.4685 21.1946 26.5076 21.6142 26.5076C22.4534 26.5076 23.1878 26.3516 23.8172 26.0397C24.4466 25.7278 24.9712 25.2891 25.3908 24.7238C25.8199 24.1487 26.1394 23.4664 26.3492 22.6769C26.5685 21.8776 26.6783 21.0003 26.6783 20.0451C26.6783 17.8813 26.2872 16.2925 25.5052 15.2787C24.7232 14.2553 23.6026 13.7436 22.1435 13.7436C21.1993 13.7436 20.3457 13.9922 19.5828 14.4893C18.8198 14.9863 18.138 15.6784 17.5372 16.5654V24.2413ZM17.48 15.4834C18.1094 14.6062 18.8438 13.9093 19.683 13.3927C20.5318 12.8761 21.4806 12.6178 22.5297 12.6178C24.275 12.6178 25.634 13.2367 26.6067 14.4746C27.5891 15.7125 28.0802 17.5694 28.0802 20.0451C28.0802 21.1076 27.9419 22.1019 27.6653 23.0278C27.3983 23.9441 26.9977 24.7433 26.4637 25.4256C25.9391 26.0982 25.2906 26.6294 24.5182 27.0193C23.7552 27.4092 22.8731 27.6041 21.8716 27.6041C20.9084 27.6041 20.074 27.4238 19.3682 27.0631C18.6625 26.7025 18.0521 26.1713 17.5372 25.4695V32.5605H16.1639V12.8663H16.922C17.1605 12.8663 17.2988 12.9882 17.3369 13.2318L17.48 15.4834ZM37.7293 12.6324C38.7498 12.6324 39.6606 12.8128 40.4617 13.1734C41.2723 13.5242 41.9542 14.0263 42.5073 14.6793C43.0605 15.3324 43.4801 16.1219 43.7662 17.0479C44.0619 17.9641 44.2096 18.9924 44.2096 20.1329C44.2096 21.2733 44.0619 22.3017 43.7662 23.2178C43.4801 24.1341 43.0605 24.9188 42.5073 25.5718C41.9542 26.2249 41.2723 26.7268 40.4617 27.0778C39.6606 27.4287 38.7498 27.6041 37.7293 27.6041C36.7089 27.6041 35.7934 27.4287 34.9828 27.0778C34.1817 26.7268 33.4998 26.2249 32.9371 25.5718C32.3839 24.9188 31.9595 24.1341 31.6639 23.2178C31.3778 22.3017 31.2347 21.2733 31.2347 20.1329C31.2347 18.9924 31.3778 17.9641 31.6639 17.0479C31.9595 16.1219 32.3839 15.3324 32.9371 14.6793C33.4998 14.0263 34.1817 13.5242 34.9828 13.1734C35.7934 12.8128 36.7089 12.6324 37.7293 12.6324ZM37.7293 26.5076C38.5781 26.5076 39.3172 26.3614 39.9466 26.069C40.5856 25.7668 41.1149 25.3379 41.5346 24.7823C41.9637 24.2267 42.2832 23.559 42.4931 22.7792C42.7028 21.9897 42.8078 21.1076 42.8078 20.1329C42.8078 19.1679 42.7028 18.2906 42.4931 17.5012C42.2832 16.7116 41.9637 16.0391 41.5346 15.4834C41.1149 14.9181 40.5856 14.4844 39.9466 14.1822C39.3172 13.8801 38.5781 13.7289 37.7293 13.7289C36.8806 13.7289 36.1367 13.8801 35.4977 14.1822C34.8683 14.4844 34.339 14.9181 33.9098 15.4834C33.4902 16.0391 33.1707 16.7116 32.9514 17.5012C32.7415 18.2906 32.6367 19.1679 32.6367 20.1329C32.6367 21.1076 32.7415 21.9897 32.9514 22.7792C33.1707 23.559 33.4902 24.2267 33.9098 24.7823C34.339 25.3379 34.8683 25.7668 35.4977 26.069C36.1367 26.3614 36.8806 26.5076 37.7293 26.5076ZM49.4916 16.3753C49.711 15.7808 49.959 15.2543 50.2355 14.7963C50.5217 14.3284 50.8459 13.9337 51.2083 13.612C51.5802 13.2903 51.9903 13.0467 52.4386 12.881C52.8963 12.7055 53.4018 12.6178 53.9549 12.6178C54.2505 12.6178 54.5414 12.647 54.8276 12.7055C55.1136 12.7543 55.3663 12.8469 55.5858 12.9832L55.4713 13.9483C55.4236 14.1042 55.333 14.1822 55.1995 14.1822C55.085 14.1822 54.9086 14.1481 54.6702 14.0799C54.4413 14.0116 54.1361 13.9775 53.7546 13.9775C53.2015 13.9775 52.7104 14.0652 52.2812 14.2407C51.8615 14.4064 51.4801 14.6598 51.1367 15.001C50.803 15.3422 50.5073 15.7661 50.2498 16.273C50.0019 16.7701 49.7729 17.3452 49.5632 17.9982V27.414H48.1899V12.8663H48.9195C49.0816 12.8663 49.196 12.9005 49.2627 12.9687C49.3295 13.0369 49.3724 13.1538 49.3915 13.3196L49.4916 16.3753ZM62.3383 27.6479C61.3751 27.6479 60.6218 27.3751 60.0781 26.8292C59.544 26.2834 59.277 25.4403 59.277 24.2998V14.3576H57.2313C57.1264 14.3576 57.0406 14.3284 56.9738 14.2699C56.9071 14.2114 56.8737 14.1286 56.8737 14.0214V13.4804L59.3056 13.305L59.649 8.09993C59.6681 8.01221 59.7062 7.93424 59.7634 7.866C59.8207 7.79777 59.9017 7.76365 60.0066 7.76365H60.6503V13.3196H65.1422V14.3576H60.6503V24.2267C60.6503 24.6263 60.698 24.9723 60.7933 25.2648C60.8983 25.5474 61.0366 25.7814 61.2082 25.9666C61.3895 26.1517 61.5993 26.2882 61.8377 26.3759C62.0761 26.4637 62.3336 26.5076 62.6101 26.5076C62.9535 26.5076 63.2491 26.4588 63.497 26.3614C63.745 26.2541 63.9596 26.142 64.1408 26.0251C64.3221 25.8984 64.4698 25.7863 64.5843 25.6888C64.6987 25.5816 64.7894 25.528 64.8561 25.528C64.9324 25.528 65.0087 25.5767 65.085 25.6742L65.4569 26.2882C65.0945 26.6976 64.6319 27.029 64.0693 27.2825C63.5161 27.5261 62.9392 27.6479 62.3383 27.6479ZM117.934 18.6708C117.934 17.891 117.824 17.1941 117.605 16.5801C117.395 15.9562 117.095 15.4299 116.704 15.001C116.313 14.5721 115.846 14.2455 115.302 14.0214C114.768 13.7874 114.176 13.6704 113.528 13.6704C112.794 13.6704 112.136 13.7874 111.554 14.0214C110.972 14.2553 110.467 14.5915 110.037 15.0302C109.618 15.4688 109.279 15.9952 109.022 16.6093C108.764 17.2233 108.593 17.9105 108.507 18.6708H117.934ZM108.435 19.5626V19.8405C108.435 20.9322 108.56 21.8922 108.808 22.7207C109.055 23.5493 109.408 24.2462 109.866 24.8116C110.324 25.3671 110.877 25.7863 111.525 26.069C112.174 26.3516 112.899 26.4929 113.7 26.4929C114.415 26.4929 115.035 26.415 115.559 26.259C116.084 26.0933 116.523 25.913 116.875 25.718C117.238 25.5133 117.524 25.333 117.734 25.1771C117.943 25.0114 118.097 24.9285 118.192 24.9285C118.316 24.9285 118.411 24.9773 118.478 25.0747L118.85 25.5426C118.62 25.835 118.316 26.1079 117.934 26.3614C117.562 26.6148 117.143 26.8341 116.676 27.0193C116.217 27.1948 115.722 27.3361 115.188 27.4433C114.663 27.5505 114.134 27.6041 113.6 27.6041C112.627 27.6041 111.74 27.4335 110.938 27.0924C110.138 26.7415 109.451 26.2346 108.878 25.5718C108.307 24.909 107.863 24.1 107.548 23.1448C107.243 22.1798 107.091 21.0784 107.091 19.8405C107.091 18.7975 107.234 17.8374 107.52 16.9602C107.816 16.0732 108.236 15.3128 108.779 14.6793C109.332 14.036 110.004 13.534 110.796 13.1734C111.597 12.8128 112.503 12.6324 113.514 12.6324C114.315 12.6324 115.059 12.7737 115.746 13.0564C116.432 13.3391 117.028 13.7533 117.533 14.2991C118.039 14.8353 118.435 15.4981 118.721 16.2876C119.016 17.0771 119.165 17.9836 119.165 19.0071C119.165 19.2215 119.136 19.3677 119.079 19.4457C119.021 19.5237 118.926 19.5626 118.792 19.5626H108.435ZM128.649 12.6324C129.669 12.6324 130.579 12.8128 131.381 13.1734C132.192 13.5242 132.873 14.0263 133.426 14.6793C133.98 15.3324 134.399 16.1219 134.685 17.0479C134.982 17.9641 135.129 18.9924 135.129 20.1329C135.129 21.2733 134.982 22.3017 134.685 23.2178C134.399 24.1341 133.98 24.9188 133.426 25.5718C132.873 26.2249 132.192 26.7268 131.381 27.0778C130.579 27.4287 129.669 27.6041 128.649 27.6041C127.629 27.6041 126.713 27.4287 125.902 27.0778C125.101 26.7268 124.418 26.2249 123.856 25.5718C123.303 24.9188 122.878 24.1341 122.582 23.2178C122.297 22.3017 122.154 21.2733 122.154 20.1329C122.154 18.9924 122.297 17.9641 122.582 17.0479C122.878 16.1219 123.303 15.3324 123.856 14.6793C124.418 14.0263 125.101 13.5242 125.902 13.1734C126.713 12.8128 127.629 12.6324 128.649 12.6324ZM128.649 26.5076C129.497 26.5076 130.237 26.3614 130.866 26.069C131.506 25.7668 132.034 25.3379 132.454 24.7823C132.883 24.2267 133.202 23.559 133.412 22.7792C133.622 21.9897 133.727 21.1076 133.727 20.1329C133.727 19.1679 133.622 18.2906 133.412 17.5012C133.202 16.7116 132.883 16.0391 132.454 15.4834C132.034 14.9181 131.506 14.4844 130.866 14.1822C130.237 13.8801 129.497 13.7289 128.649 13.7289C127.8 13.7289 127.056 13.8801 126.417 14.1822C125.787 14.4844 125.258 14.9181 124.828 15.4834C124.409 16.0391 124.089 16.7116 123.87 17.5012C123.66 18.2906 123.555 19.1679 123.555 20.1329C123.555 21.1076 123.66 21.9897 123.87 22.7792C124.089 23.559 124.409 24.2267 124.828 24.7823C125.258 25.3379 125.787 25.7668 126.417 26.069C127.056 26.3614 127.8 26.5076 128.649 26.5076ZM140.483 24.2413C140.759 24.6605 141.045 25.0162 141.341 25.3086C141.645 25.5913 141.965 25.8252 142.299 26.0104C142.633 26.1859 142.986 26.3126 143.357 26.3906C143.739 26.4685 144.139 26.5076 144.559 26.5076C145.398 26.5076 146.133 26.3516 146.763 26.0397C147.391 25.7278 147.916 25.2891 148.336 24.7238C148.765 24.1487 149.084 23.4664 149.294 22.6769C149.514 21.8776 149.623 21.0003 149.623 20.0451C149.623 17.8813 149.233 16.2925 148.45 15.2787C147.668 14.2553 146.548 13.7436 145.088 13.7436C144.144 13.7436 143.291 13.9922 142.528 14.4893C141.765 14.9863 141.083 15.6784 140.483 16.5654V24.2413ZM140.425 15.4834C141.055 14.6062 141.789 13.9093 142.628 13.3927C143.477 12.8761 144.426 12.6178 145.475 12.6178C147.22 12.6178 148.579 13.2367 149.551 14.4746C150.535 15.7125 151.025 17.5694 151.025 20.0451C151.025 21.1076 150.887 22.1019 150.61 23.0278C150.344 23.9441 149.943 24.7433 149.409 25.4256C148.884 26.0982 148.235 26.6294 147.463 27.0193C146.7 27.4092 145.818 27.6041 144.817 27.6041C143.854 27.6041 143.019 27.4238 142.314 27.0631C141.608 26.7025 140.997 26.1713 140.483 25.4695V32.5605H139.109V12.8663H139.867C140.105 12.8663 140.243 12.9882 140.282 13.2318L140.425 15.4834ZM156.54 6.14075V27.414H155.167V6.14075H156.54ZM171.481 18.6708C171.481 17.891 171.371 17.1941 171.152 16.5801C170.942 15.9562 170.641 15.4299 170.251 15.001C169.86 14.5721 169.393 14.2455 168.849 14.0214C168.315 13.7874 167.723 13.6704 167.075 13.6704C166.34 13.6704 165.682 13.7874 165.101 14.0214C164.519 14.2553 164.013 14.5915 163.584 15.0302C163.165 15.4688 162.826 15.9952 162.569 16.6093C162.311 17.2233 162.14 17.9105 162.054 18.6708H171.481ZM161.982 19.5626V19.8405C161.982 20.9322 162.106 21.8922 162.354 22.7207C162.602 23.5493 162.955 24.2462 163.412 24.8116C163.871 25.3671 164.424 25.7863 165.072 26.069C165.721 26.3516 166.445 26.4929 167.247 26.4929C167.961 26.4929 168.581 26.415 169.106 26.259C169.631 26.0933 170.069 25.913 170.422 25.718C170.784 25.5133 171.071 25.333 171.28 25.1771C171.49 25.0114 171.642 24.9285 171.738 24.9285C171.862 24.9285 171.957 24.9773 172.024 25.0747L172.396 25.5426C172.167 25.835 171.862 26.1079 171.481 26.3614C171.108 26.6148 170.69 26.8341 170.222 27.0193C169.764 27.1948 169.268 27.3361 168.735 27.4433C168.21 27.5505 167.68 27.6041 167.146 27.6041C166.174 27.6041 165.287 27.4335 164.485 27.0924C163.684 26.7415 162.997 26.2346 162.425 25.5718C161.853 24.909 161.41 24.1 161.095 23.1448C160.79 22.1798 160.638 21.0784 160.638 19.8405C160.638 18.7975 160.78 17.8374 161.067 16.9602C161.362 16.0732 161.781 15.3128 162.325 14.6793C162.878 14.036 163.551 13.534 164.342 13.1734C165.143 12.8128 166.05 12.6324 167.06 12.6324C167.861 12.6324 168.605 12.7737 169.292 13.0564C169.979 13.3391 170.575 13.7533 171.08 14.2991C171.586 14.8353 171.982 15.4981 172.267 16.2876C172.563 17.0771 172.711 17.9836 172.711 19.0071C172.711 19.2215 172.682 19.3677 172.625 19.4457C172.568 19.5237 172.472 19.5626 172.339 19.5626H161.982Z" fill="white" stroke="#EEEEEE" stroke-width="2"/>
</g>
</svg>
