<svg width="209" height="41" viewBox="0 0 209 41" fill="none" xmlns="http://www.w3.org/2000/svg">
<path d="M97.8112 10.4319C97.8112 11.2784 98.1938 11.833 98.5934 12.0874V13.5175C98.5934 14.1777 99.1294 14.723 99.7795 14.723C99.9168 15.5234 100.13 16.321 100.735 16.8703C100.941 17.0578 101.173 17.2231 101.429 17.364L101.099 18.7877L98.5573 19.2196C98.2186 19.1719 96.8095 19.0119 95.5186 19.4305C94.7787 19.6703 94.0408 20.1291 93.6541 20.946C93.2843 21.7265 93.2668 22.7683 93.7109 24.107C92.814 26.0478 92.7814 28.0449 93.6897 29.6091C93.5648 29.9308 93.3685 30.5382 93.3241 31.2683C93.257 32.3573 93.5544 33.7823 94.8876 34.8693L94.8897 34.8651C94.9692 34.9316 95.0683 34.9688 95.1716 34.9706H112.621C112.723 34.9693 112.821 34.9321 112.902 34.8661L112.903 34.8676C114.237 33.7805 114.536 32.3555 114.468 31.2665C114.423 30.5369 114.227 29.93 114.101 29.6082C115.011 28.0441 114.979 26.0471 114.081 24.1061C114.526 22.7672 114.508 21.7248 114.138 20.9442C113.751 20.1273 113.013 19.6686 112.274 19.4287C110.794 18.9488 109.231 19.2295 109.231 19.2295L106.693 18.7877L106.362 17.3623C106.619 17.2213 106.851 17.0559 107.057 16.8685C107.663 16.3191 107.875 15.5215 108.013 14.7212C108.663 14.7212 109.199 14.1759 109.199 13.5156V12.1693C109.218 12.1478 109.236 12.1242 109.252 12.0993C109.359 11.9284 109.802 11.1902 109.943 10.1965C110.085 9.2027 109.872 7.91447 108.696 6.90447C108.692 6.90026 108.687 6.89746 108.683 6.89326C108.211 6.5137 107.709 6.23326 106.932 6.11685C106.647 6.07422 106.605 6.16061 106.514 6.20689C106.425 6.25247 106.341 6.30381 106.258 6.35873C106.244 6.33938 106.23 6.31945 106.214 6.29967C106.14 6.20698 106.042 6.05008 105.752 6.03875C105.583 6.03174 105.412 6.02942 105.238 6.02942C103.558 6.03503 101.661 6.35395 99.9932 6.62587C99.1588 6.76203 98.4597 7.44601 98.2501 8.2923L97.8112 10.4319ZM106.868 7.07089C107.436 7.16808 107.722 7.31392 108.109 7.62459C109.042 8.42895 109.15 9.28923 109.04 10.0638C108.97 10.5513 108.794 10.9893 108.656 11.2747C107.808 10.7808 107.489 9.80925 107.489 9.80925C107.414 9.56311 107.157 9.42614 106.915 9.50375C106.848 9.52591 106.787 9.56364 106.737 9.6137C105.765 10.4327 103.97 10.9223 102.404 11.161C102.934 10.7896 103.422 10.3029 103.736 9.65825C103.849 9.42756 103.757 9.14706 103.53 9.03274C103.304 8.91803 103.029 9.01216 102.917 9.24279C102.522 10.0537 101.646 10.62 100.836 10.961C100.134 11.2569 99.5197 11.3798 99.369 11.4074C99.3143 11.4004 99.2002 11.3778 99.0788 11.3009C98.9156 11.1971 98.7359 11.0368 98.7267 10.4755L99.1371 8.52176C99.241 8.10201 99.7717 7.60874 100.138 7.54897C101.816 7.27529 103.686 6.98655 105.254 6.98531C105.359 6.98523 105.461 6.98617 105.563 6.98945L105.668 7.21675C105.757 7.4558 106.019 7.57676 106.255 7.48765L106.868 7.07089ZM106.87 10.6637C107.114 11.1184 107.557 11.739 108.285 12.1302V13.5175C108.285 13.6781 108.172 13.7921 108.015 13.7921C107.98 13.7921 107.951 13.7892 107.923 13.778C107.632 13.672 107.324 13.8857 107.313 14.2008C107.287 14.999 107 15.6755 106.451 16.1736C105.902 16.6717 105.068 17.0019 103.895 17.0019C102.721 17.0019 101.891 16.6717 101.342 16.1736C100.794 15.6755 100.505 14.999 100.479 14.2008C100.469 13.8834 100.157 13.6688 99.8652 13.778C99.8425 13.7865 99.8146 13.7921 99.7775 13.7921C99.62 13.7921 99.5079 13.678 99.5079 13.5175V12.3402C99.8456 12.3346 101.033 12.3037 102.435 12.0983C103.908 11.8824 105.618 11.4951 106.87 10.6637ZM105.508 17.7159L105.863 19.2587C105.849 20.322 105.479 20.7166 105.068 20.9497C104.648 21.1873 104.137 21.2005 103.895 21.2005C103.653 21.2005 103.144 21.1865 102.724 20.9497C102.313 20.7166 101.943 20.322 101.93 19.2587L102.284 17.7168C102.766 17.8579 103.304 17.9322 103.895 17.9322C104.487 17.9322 105.026 17.8576 105.508 17.7159ZM109.708 29.59C109.578 30.0201 109.256 31.1984 109.256 32.2847C109.256 32.981 109.395 33.6016 109.532 34.0412H98.2599C98.3962 33.6016 98.5366 32.981 98.5366 32.2847C98.5366 31.1976 98.2108 30.0184 98.0807 29.5891C98.391 28.8059 98.5382 28.0854 98.611 27.3817C99.7387 24.4003 99.3297 21.2557 99.1113 20.0697L101.049 19.7414C101.184 20.7808 101.703 21.4373 102.279 21.7634C102.95 22.1431 103.653 22.1315 103.895 22.1315C104.137 22.1315 104.839 22.1441 105.509 21.7634C106.085 21.4374 106.606 20.781 106.742 19.7423L108.681 20.0697C108.462 21.2557 108.053 24.4003 109.18 27.3822C109.251 28.0864 109.398 28.8067 109.708 29.59ZM97.3857 20.0923C97.7074 20.0882 97.9873 20.105 98.1866 20.1205C98.3327 20.8918 98.6476 22.9977 98.2635 25.218C97.9268 24.3166 97.4337 23.8044 97.4337 23.8044C97.3475 23.7178 97.2313 23.6697 97.1099 23.6707C96.9891 23.6698 96.8724 23.7178 96.7862 23.8044C96.6065 23.9863 96.6065 24.2824 96.7862 24.4644C96.7862 24.4644 97.1921 24.8699 97.4642 25.7017C97.7363 26.5335 97.8598 27.7544 97.174 29.3846C97.1307 29.4895 97.126 29.6067 97.1616 29.7146C97.1616 29.7146 97.6232 31.1742 97.6232 32.2848C97.6232 33.0388 97.4224 33.6962 97.2938 34.0412H95.3364C94.3542 33.176 94.1817 32.179 94.2339 31.3266C94.2881 30.44 94.6119 29.7765 94.6119 29.7765C94.6883 29.6214 94.6707 29.4445 94.5824 29.3101L94.5845 29.3091C93.7191 27.9864 93.6974 26.2088 94.6119 24.3443C94.6682 24.2296 94.6754 24.0964 94.632 23.9761C94.173 22.6899 94.2272 21.8773 94.4766 21.3515C94.7255 20.8256 95.2021 20.5128 95.7954 20.3205C96.3138 20.1524 96.8952 20.099 97.3857 20.0923ZM111.997 20.3205C112.59 20.5128 113.066 20.8256 113.315 21.3515C113.564 21.8773 113.619 22.6899 113.16 23.9761C113.115 24.1013 113.126 24.2338 113.179 24.3443C114.095 26.2089 114.073 27.9864 113.207 29.3091C113.111 29.4566 113.108 29.6395 113.184 29.7855C113.207 29.8328 113.506 30.4733 113.559 31.3266C113.61 32.179 113.438 33.1759 112.455 34.0412H110.498C110.369 33.6962 110.169 33.0387 110.169 32.2847C110.169 31.1741 110.627 29.7146 110.627 29.7146C110.664 29.6021 110.657 29.4857 110.614 29.3846C109.928 27.7543 110.056 26.5334 110.328 25.7017C110.6 24.8698 111.003 24.4644 111.003 24.4644C111.181 24.2824 111.181 23.9863 111.003 23.8044C110.824 23.6239 110.536 23.6239 110.358 23.8044C110.358 23.8044 109.865 24.3166 109.528 25.218C109.145 23.0029 109.459 20.8962 109.605 20.1205C110.375 20.0624 111.308 20.1046 111.997 20.3205ZM100.514 25.1762C100.322 25.1819 100.154 25.3096 100.094 25.4953C100.015 25.7391 100.145 26.0018 100.384 26.0826C101.225 26.3683 102.546 26.4781 103.895 26.4781C105.243 26.4781 106.567 26.3683 107.408 26.0826C107.647 26.0017 107.777 25.7391 107.698 25.4953C107.619 25.2519 107.36 25.1196 107.121 25.1998C106.509 25.408 105.187 25.5471 103.895 25.5471C102.602 25.5471 101.283 25.4082 100.671 25.1998C100.62 25.1822 100.567 25.1747 100.514 25.1762Z" fill="black"/>
<mask id="mask0_157_2" style="mask-type:alpha" maskUnits="userSpaceOnUse" x="0" y="7" width="209" height="33">
<path d="M13.9467 11.1428C13.843 11.3426 13.6932 11.4425 13.4974 11.4425C13.3476 11.4425 13.1517 11.3367 12.9098 11.1251C12.6793 10.9018 12.3625 10.6609 11.9593 10.4023C11.556 10.1319 11.049 9.88509 10.4384 9.66177C9.8393 9.43843 9.09616 9.32677 8.20902 9.32677C7.32186 9.32677 6.53841 9.45608 5.85865 9.71466C5.19041 9.97325 4.62586 10.3259 4.16499 10.7725C3.71565 11.2192 3.37002 11.7363 3.12807 12.324C2.89764 12.9117 2.78242 13.5288 2.78242 14.1753C2.78242 15.0216 2.95525 15.7209 3.30089 16.2734C3.65805 16.8258 4.12467 17.296 4.70074 17.6839C5.27682 18.0717 5.92778 18.4009 6.65362 18.6712C7.39099 18.9298 8.14564 19.1883 8.91758 19.447C9.68951 19.7055 10.4384 19.9936 11.1643 20.3109C11.9016 20.6165 12.5584 21.0044 13.1345 21.4745C13.7105 21.9447 14.1713 22.5266 14.517 23.22C14.8742 23.9017 15.0528 24.7539 15.0528 25.7765C15.0528 26.8227 14.8742 27.8099 14.517 28.7385C14.1713 29.6553 13.6644 30.4546 12.9961 31.1363C12.3279 31.8181 11.5098 32.3587 10.5421 32.7584C9.5743 33.1463 8.46825 33.3401 7.22393 33.3401C5.61093 33.3401 4.2226 33.0522 3.05894 32.4763C1.89528 31.8886 0.875628 31.0894 0 30.0784L0.4839 29.3027C0.622156 29.1264 0.783456 29.0382 0.967799 29.0382C1.07149 29.0382 1.20399 29.1087 1.36528 29.2499C1.52659 29.3909 1.72246 29.5672 1.95288 29.7788C2.18331 29.9786 2.45983 30.2019 2.78242 30.4487C3.10502 30.6838 3.47947 30.9071 3.90576 31.1186C4.33206 31.3185 4.82172 31.4889 5.37475 31.63C5.92778 31.771 6.55569 31.8415 7.2585 31.8415C8.2263 31.8415 9.0904 31.6946 9.85082 31.4008C10.6112 31.0952 11.2507 30.6838 11.7691 30.1666C12.2991 29.6494 12.7024 29.0382 12.9789 28.333C13.2554 27.6159 13.3937 26.8519 13.3937 26.041C13.3937 25.1595 13.2151 24.4366 12.858 23.8723C12.5122 23.2964 12.0514 22.8204 11.4754 22.4442C10.8993 22.0563 10.2425 21.7332 9.50517 21.4745C8.77932 21.216 8.03043 20.9633 7.2585 20.7164C6.48656 20.4695 5.73191 20.1933 4.99454 19.8878C4.26868 19.5822 3.61772 19.1943 3.04166 18.7241C2.46558 18.2422 1.99897 17.6486 1.6418 16.9434C1.29617 16.2264 1.12334 15.3331 1.12334 14.2634C1.12334 13.4289 1.27887 12.6238 1.58995 11.8481C1.90103 11.0722 2.35613 10.3905 2.95525 9.80282C3.55436 9.20336 4.29173 8.72732 5.16736 8.37471C6.05451 8.01033 7.06264 7.82814 8.19173 7.82814C9.45909 7.82814 10.5939 8.03383 11.5963 8.44523C12.6102 8.85662 13.5319 9.48546 14.3615 10.3317L13.9467 11.1428ZM21.1865 29.2322C21.5206 29.7376 21.8663 30.1666 22.2234 30.5192C22.5921 30.8601 22.9781 31.1422 23.3814 31.3655C23.7847 31.5771 24.2109 31.7299 24.6603 31.824C25.1211 31.9179 25.605 31.965 26.112 31.965C27.1258 31.965 28.013 31.7769 28.7734 31.4008C29.5338 31.0247 30.1675 30.4957 30.6745 29.814C31.1928 29.1205 31.5789 28.2977 31.8323 27.3457C32.0973 26.3818 32.2299 25.3239 32.2299 24.1721C32.2299 21.5627 31.7574 19.6468 30.8127 18.4243C29.8679 17.1902 28.5141 16.5731 26.7514 16.5731C25.6107 16.5731 24.5795 16.8729 23.6579 17.4723C22.7361 18.0717 21.9123 18.9063 21.1865 19.9759V29.2322ZM21.1175 18.6712C21.8778 17.6134 22.765 16.773 23.7788 16.15C24.8043 15.527 25.9506 15.2156 27.218 15.2156C29.3265 15.2156 30.9682 15.9619 32.1434 17.4546C33.3301 18.9474 33.9234 21.1866 33.9234 24.1721C33.9234 25.4533 33.7564 26.6522 33.4223 27.7688C33.0997 28.8737 32.6158 29.8374 31.9706 30.6603C31.3369 31.4714 30.5534 32.1119 29.6202 32.5821C28.6984 33.0522 27.6328 33.2873 26.423 33.2873C25.2593 33.2873 24.2512 33.0699 23.3986 32.6349C22.5461 32.2001 21.8086 31.5594 21.1865 30.7132V39.2642H19.5275V15.5152H20.4434C20.7314 15.5152 20.8985 15.6622 20.9445 15.956L21.1175 18.6712ZM45.5805 15.2331C46.8134 15.2331 47.9136 15.4507 48.8814 15.8855C49.8608 16.3086 50.6846 16.914 51.3528 17.7014C52.021 18.489 52.528 19.4411 52.8736 20.5577C53.2308 21.6626 53.4093 22.9026 53.4093 24.2778C53.4093 25.6531 53.2308 26.8932 52.8736 27.998C52.528 29.1028 52.021 30.0491 51.3528 30.8366C50.6846 31.6241 49.8608 32.2294 48.8814 32.6526C47.9136 33.0757 46.8134 33.2873 45.5805 33.2873C44.3477 33.2873 43.2418 33.0757 42.2624 32.6526C41.2946 32.2294 40.4709 31.6241 39.7911 30.8366C39.1227 30.0491 38.6101 29.1028 38.2529 27.998C37.9072 26.8932 37.7344 25.6531 37.7344 24.2778C37.7344 22.9026 37.9072 21.6626 38.2529 20.5577C38.6101 19.4411 39.1227 18.489 39.7911 17.7014C40.4709 16.914 41.2946 16.3086 42.2624 15.8855C43.2418 15.4507 44.3477 15.2331 45.5805 15.2331ZM45.5805 31.965C46.606 31.965 47.4988 31.7887 48.2592 31.4361C49.0312 31.0717 49.6706 30.5545 50.1776 29.8845C50.6961 29.2145 51.082 28.4094 51.3355 27.4691C51.589 26.517 51.7157 25.4533 51.7157 24.2778C51.7157 23.1143 51.589 22.0563 51.3355 21.1043C51.082 20.1522 50.6961 19.3412 50.1776 18.6712C49.6706 17.9895 49.0312 17.4665 48.2592 17.102C47.4988 16.7377 46.606 16.5554 45.5805 16.5554C44.5551 16.5554 43.6564 16.7377 42.8845 17.102C42.1241 17.4665 41.4847 17.9895 40.9662 18.6712C40.4593 19.3412 40.0733 20.1522 39.8083 21.1043C39.5548 22.0563 39.4281 23.1143 39.4281 24.2778C39.4281 25.4533 39.5548 26.517 39.8083 27.4691C40.0733 28.4094 40.4593 29.2145 40.9662 29.8845C41.4847 30.5545 42.1241 31.0717 42.8845 31.4361C43.6564 31.7887 44.5551 31.965 45.5805 31.965ZM59.7904 19.7466C60.0555 19.0297 60.3551 18.3949 60.6891 17.8426C61.0349 17.2783 61.4266 16.8024 61.8643 16.4144C62.3136 16.0265 62.8091 15.7327 63.3506 15.5329C63.9036 15.3213 64.5143 15.2156 65.1825 15.2156C65.5397 15.2156 65.8911 15.2508 66.2368 15.3213C66.5824 15.3801 66.8877 15.4918 67.1527 15.6562L67.0144 16.8199C66.9569 17.008 66.8473 17.102 66.6861 17.102C66.5478 17.102 66.3347 17.0609 66.0466 16.9787C65.7701 16.8963 65.4015 16.8552 64.9405 16.8552C64.2723 16.8552 63.679 16.961 63.1605 17.1725C62.6535 17.3724 62.1927 17.678 61.7779 18.0894C61.3747 18.5008 61.0175 19.012 60.7064 19.6233C60.4069 20.2227 60.1303 20.9162 59.8769 21.7037V33.0581H58.2178V15.5152H59.0993C59.2951 15.5152 59.4333 15.5564 59.5139 15.6387C59.5946 15.7209 59.6464 15.862 59.6695 16.0618L59.7904 19.7466ZM75.3105 33.3401C74.1468 33.3401 73.2367 33.0111 72.5799 32.3529C71.9347 31.6946 71.6121 30.6779 71.6121 29.3027V17.3136H69.1407C69.014 17.3136 68.9103 17.2783 68.8296 17.2078C68.749 17.1373 68.7087 17.0374 68.7087 16.9082V16.2558L71.6467 16.0442L72.0615 9.76755C72.0846 9.66177 72.1306 9.56774 72.1997 9.48546C72.2689 9.40317 72.3668 9.36203 72.4935 9.36203H73.2712V16.0618H78.6978V17.3136H73.2712V29.2145C73.2712 29.6964 73.3289 30.1137 73.444 30.4664C73.5707 30.8072 73.7378 31.0894 73.9452 31.3126C74.1642 31.5359 74.4176 31.7005 74.7056 31.8063C74.9937 31.912 75.3048 31.965 75.6388 31.965C76.0536 31.965 76.4107 31.9062 76.7103 31.7887C77.0099 31.6594 77.2691 31.5242 77.4881 31.3831C77.707 31.2304 77.8855 31.0952 78.0238 30.9776C78.162 30.8484 78.2715 30.7837 78.3522 30.7837C78.4443 30.7837 78.5365 30.8424 78.6287 30.96L79.0779 31.7005C78.6402 32.1941 78.0814 32.5938 77.4016 32.8994C76.7334 33.1932 76.0364 33.3401 75.3105 33.3401ZM142.475 22.5147C142.475 21.5744 142.343 20.734 142.078 19.9936C141.824 19.2413 141.461 18.6066 140.989 18.0894C140.517 17.5722 139.952 17.1784 139.296 16.9082C138.65 16.626 137.935 16.4849 137.152 16.4849C136.266 16.4849 135.471 16.626 134.767 16.9082C134.065 17.1902 133.454 17.5957 132.935 18.1247C132.428 18.6536 132.019 19.2883 131.709 20.0288C131.397 20.7693 131.19 21.598 131.086 22.5147H142.475ZM131 23.5902V23.9252C131 25.2417 131.15 26.3994 131.45 27.3985C131.749 28.3976 132.175 29.238 132.729 29.9198C133.281 30.5897 133.95 31.0952 134.733 31.4361C135.517 31.7769 136.392 31.9473 137.36 31.9473C138.224 31.9473 138.972 31.8534 139.606 31.6652C140.24 31.4654 140.77 31.248 141.196 31.0129C141.635 30.766 141.98 30.5486 142.233 30.3606C142.487 30.1608 142.672 30.0608 142.787 30.0608C142.937 30.0608 143.052 30.1196 143.132 30.2371L143.582 30.8013C143.304 31.1539 142.937 31.4831 142.475 31.7887C142.026 32.0943 141.519 32.3587 140.955 32.5821C140.401 32.7937 139.803 32.9641 139.157 33.0933C138.524 33.2226 137.884 33.2873 137.239 33.2873C136.064 33.2873 134.992 33.0816 134.024 32.6702C133.056 32.2471 132.227 31.6358 131.535 30.8366C130.844 30.0373 130.309 29.0617 129.928 27.9099C129.559 26.7462 129.376 25.418 129.376 23.9252C129.376 22.6676 129.548 21.5098 129.894 20.452C130.252 19.3823 130.759 18.4655 131.415 17.7014C132.083 16.9257 132.895 16.3204 133.851 15.8855C134.82 15.4507 135.914 15.2331 137.135 15.2331C138.103 15.2331 139.002 15.4036 139.831 15.7445C140.66 16.0853 141.381 16.5848 141.991 17.2431C142.602 17.8896 143.08 18.6888 143.425 19.6409C143.783 20.593 143.962 21.6861 143.962 22.9203C143.962 23.1788 143.927 23.3551 143.858 23.4492C143.789 23.5432 143.673 23.5902 143.512 23.5902H131ZM155.419 15.2331C156.652 15.2331 157.752 15.4507 158.72 15.8855C159.7 16.3086 160.523 16.914 161.192 17.7014C161.86 18.489 162.367 19.4411 162.712 20.5577C163.07 21.6626 163.248 22.9026 163.248 24.2778C163.248 25.6531 163.07 26.8932 162.712 27.998C162.367 29.1028 161.86 30.0491 161.192 30.8366C160.523 31.6241 159.7 32.2294 158.72 32.6526C157.752 33.0757 156.652 33.2873 155.419 33.2873C154.187 33.2873 153.08 33.0757 152.102 32.6526C151.133 32.2294 150.309 31.6241 149.629 30.8366C148.961 30.0491 148.448 29.1028 148.091 27.998C147.746 26.8932 147.573 25.6531 147.573 24.2778C147.573 22.9026 147.746 21.6626 148.091 20.5577C148.448 19.4411 148.961 18.489 149.629 17.7014C150.309 16.914 151.133 16.3086 152.102 15.8855C153.08 15.4507 154.187 15.2331 155.419 15.2331ZM155.419 31.965C156.444 31.965 157.338 31.7887 158.099 31.4361C158.871 31.0717 159.509 30.5545 160.016 29.8845C160.535 29.2145 160.921 28.4094 161.174 27.4691C161.428 26.517 161.555 25.4533 161.555 24.2778C161.555 23.1143 161.428 22.0563 161.174 21.1043C160.921 20.1522 160.535 19.3412 160.016 18.6712C159.509 17.9895 158.871 17.4665 158.099 17.102C157.338 16.7377 156.444 16.5554 155.419 16.5554C154.394 16.5554 153.495 16.7377 152.723 17.102C151.962 17.4665 151.323 17.9895 150.804 18.6712C150.297 19.3412 149.911 20.1522 149.646 21.1043C149.393 22.0563 149.266 23.1143 149.266 24.2778C149.266 25.4533 149.393 26.517 149.646 27.4691C149.911 28.4094 150.297 29.2145 150.804 29.8845C151.323 30.5545 151.962 31.0717 152.723 31.4361C153.495 31.7887 154.394 31.965 155.419 31.965ZM169.716 29.2322C170.049 29.7376 170.396 30.1666 170.753 30.5192C171.121 30.8601 171.507 31.1422 171.91 31.3655C172.314 31.5771 172.74 31.7299 173.189 31.824C173.65 31.9179 174.134 31.965 174.641 31.965C175.655 31.965 176.542 31.7769 177.303 31.4008C178.062 31.0247 178.696 30.4957 179.203 29.814C179.722 29.1205 180.108 28.2977 180.361 27.3457C180.626 26.3818 180.759 25.3239 180.759 24.1721C180.759 21.5627 180.287 19.6468 179.341 18.4243C178.397 17.1902 177.044 16.5731 175.28 16.5731C174.139 16.5731 173.109 16.8729 172.187 17.4723C171.266 18.0717 170.441 18.9063 169.716 19.9759V29.2322ZM169.646 18.6712C170.407 17.6134 171.294 16.773 172.307 16.15C173.333 15.527 174.48 15.2156 175.747 15.2156C177.856 15.2156 179.497 15.9619 180.672 17.4546C181.86 18.9474 182.452 21.1866 182.452 24.1721C182.452 25.4533 182.286 26.6522 181.951 27.7688C181.629 28.8737 181.145 29.8374 180.499 30.6603C179.866 31.4714 179.082 32.1119 178.149 32.5821C177.227 33.0522 176.162 33.2873 174.952 33.2873C173.789 33.2873 172.78 33.0699 171.928 32.6349C171.075 32.2001 170.337 31.5594 169.716 30.7132V39.2642H168.057V15.5152H168.972C169.26 15.5152 169.427 15.6622 169.474 15.956L169.646 18.6712ZM189.115 7.405V33.0581H187.456V7.405H189.115ZM207.165 22.5147C207.165 21.5744 207.032 20.734 206.767 19.9936C206.514 19.2413 206.151 18.6066 205.679 18.0894C205.206 17.5722 204.642 17.1784 203.985 16.9082C203.34 16.626 202.625 16.4849 201.841 16.4849C200.954 16.4849 200.159 16.626 199.457 16.9082C198.754 17.1902 198.143 17.5957 197.625 18.1247C197.118 18.6536 196.709 19.2883 196.398 20.0288C196.087 20.7693 195.88 21.598 195.776 22.5147H207.165ZM195.689 23.5902V23.9252C195.689 25.2417 195.839 26.3994 196.139 27.3985C196.438 28.3976 196.864 29.238 197.417 29.9198C197.971 30.5897 198.639 31.0952 199.423 31.4361C200.206 31.7769 201.081 31.9473 202.049 31.9473C202.913 31.9473 203.662 31.8534 204.296 31.6652C204.93 31.4654 205.46 31.248 205.886 31.0129C206.323 30.766 206.669 30.5486 206.923 30.3606C207.176 30.1608 207.36 30.0608 207.475 30.0608C207.625 30.0608 207.74 30.1196 207.821 30.2371L208.27 30.8013C207.994 31.1539 207.625 31.4831 207.165 31.7887C206.715 32.0943 206.209 32.3587 205.643 32.5821C205.091 32.7937 204.491 32.9641 203.847 33.0933C203.213 33.2226 202.574 33.2873 201.928 33.2873C200.753 33.2873 199.682 33.0816 198.713 32.6702C197.746 32.2471 196.916 31.6358 196.225 30.8366C195.534 30.0373 194.998 29.0617 194.618 27.9099C194.249 26.7462 194.065 25.418 194.065 23.9252C194.065 22.6676 194.238 21.5098 194.584 20.452C194.94 19.3823 195.447 18.4655 196.104 17.7014C196.772 16.9257 197.585 16.3204 198.541 15.8855C199.508 15.4507 200.603 15.2331 201.824 15.2331C202.792 15.2331 203.69 15.4036 204.521 15.7445C205.35 16.0853 206.071 16.5848 206.68 17.2431C207.291 17.8896 207.77 18.6888 208.115 19.6409C208.472 20.593 208.651 21.6861 208.651 22.9203C208.651 23.1788 208.616 23.3551 208.547 23.4492C208.478 23.5432 208.363 23.5902 208.202 23.5902H195.689Z" fill="white"/>
</mask>
<g mask="url(#mask0_157_2)">
<path d="M13.9467 11.1428C13.843 11.3426 13.6932 11.4425 13.4974 11.4425C13.3476 11.4425 13.1517 11.3367 12.9098 11.1251C12.6793 10.9018 12.3625 10.6609 11.9593 10.4023C11.556 10.1319 11.049 9.88509 10.4384 9.66177C9.8393 9.43843 9.09616 9.32677 8.20902 9.32677C7.32186 9.32677 6.53841 9.45608 5.85865 9.71466C5.19041 9.97325 4.62586 10.3259 4.16499 10.7725C3.71565 11.2192 3.37002 11.7363 3.12807 12.324C2.89764 12.9117 2.78242 13.5288 2.78242 14.1753C2.78242 15.0216 2.95525 15.7209 3.30089 16.2734C3.65805 16.8258 4.12467 17.296 4.70074 17.6839C5.27682 18.0717 5.92778 18.4009 6.65362 18.6712C7.39099 18.9298 8.14564 19.1883 8.91758 19.447C9.68951 19.7055 10.4384 19.9936 11.1643 20.3109C11.9016 20.6165 12.5584 21.0044 13.1344 21.4745C13.7105 21.9447 14.1713 22.5266 14.517 23.22C14.8742 23.9017 15.0528 24.7539 15.0528 25.7765C15.0528 26.8227 14.8742 27.8099 14.517 28.7385C14.1713 29.6553 13.6644 30.4546 12.9961 31.1363C12.3279 31.8181 11.5098 32.3587 10.5421 32.7584C9.5743 33.1463 8.46825 33.3401 7.22393 33.3401C5.61093 33.3401 4.2226 33.0522 3.05894 32.4763C1.89528 31.8886 0.875628 31.0894 0 30.0784L0.4839 29.3027C0.622156 29.1264 0.783456 29.0382 0.967799 29.0382C1.07149 29.0382 1.20399 29.1087 1.36528 29.2499C1.52659 29.3909 1.72246 29.5672 1.95288 29.7788C2.18331 29.9786 2.45983 30.2019 2.78242 30.4487C3.10502 30.6838 3.47947 30.9071 3.90576 31.1186C4.33206 31.3185 4.82172 31.4889 5.37475 31.63C5.92778 31.771 6.55569 31.8415 7.2585 31.8415C8.2263 31.8415 9.0904 31.6946 9.85082 31.4008C10.6112 31.0952 11.2507 30.6838 11.7691 30.1666C12.2991 29.6494 12.7024 29.0382 12.9789 28.333C13.2554 27.6159 13.3937 26.8519 13.3937 26.041C13.3937 25.1595 13.2151 24.4366 12.858 23.8723C12.5122 23.2964 12.0514 22.8204 11.4754 22.4442C10.8993 22.0563 10.2425 21.7331 9.50517 21.4745C8.77932 21.216 8.03043 20.9633 7.2585 20.7164C6.48656 20.4695 5.73191 20.1933 4.99454 19.8878C4.26868 19.5822 3.61772 19.1943 3.04166 18.7241C2.46558 18.2422 1.99896 17.6486 1.6418 16.9434C1.29617 16.2264 1.12334 15.3331 1.12334 14.2634C1.12334 13.4289 1.27887 12.6238 1.58995 11.8481C1.90103 11.0722 2.35613 10.3905 2.95525 9.80282C3.55436 9.20336 4.29173 8.72732 5.16736 8.37471C6.05451 8.01033 7.06263 7.82814 8.19173 7.82814C9.45909 7.82814 10.5939 8.03383 11.5963 8.44523C12.6102 8.85662 13.5319 9.48546 14.3615 10.3317L13.9467 11.1428ZM21.1865 29.2322C21.5206 29.7376 21.8663 30.1666 22.2234 30.5192C22.5921 30.8601 22.9781 31.1422 23.3814 31.3655C23.7847 31.5771 24.2109 31.7299 24.6603 31.824C25.1211 31.9179 25.605 31.965 26.112 31.965C27.1258 31.965 28.013 31.7769 28.7734 31.4008C29.5338 31.0247 30.1675 30.4957 30.6745 29.814C31.1928 29.1205 31.5789 28.2977 31.8323 27.3457C32.0973 26.3818 32.2299 25.3239 32.2299 24.1721C32.2299 21.5627 31.7574 19.6468 30.8127 18.4243C29.8679 17.1902 28.5141 16.5731 26.7514 16.5731C25.6107 16.5731 24.5795 16.8729 23.6579 17.4723C22.7361 18.0717 21.9123 18.9063 21.1865 19.9759V29.2322ZM21.1175 18.6712C21.8778 17.6134 22.765 16.773 23.7788 16.15C24.8043 15.527 25.9506 15.2156 27.218 15.2156C29.3265 15.2156 30.9682 15.9619 32.1434 17.4546C33.3301 18.9474 33.9234 21.1866 33.9234 24.1721C33.9234 25.4533 33.7564 26.6522 33.4223 27.7688C33.0997 28.8737 32.6158 29.8374 31.9706 30.6603C31.3369 31.4714 30.5534 32.1119 29.6202 32.5821C28.6984 33.0522 27.6328 33.2873 26.423 33.2873C25.2593 33.2873 24.2512 33.0699 23.3986 32.6349C22.5461 32.2001 21.8086 31.5594 21.1865 30.7132V39.2642H19.5275V15.5152H20.4434C20.7314 15.5152 20.8985 15.6622 20.9445 15.956L21.1175 18.6712ZM45.5805 15.2331C46.8134 15.2331 47.9136 15.4507 48.8814 15.8855C49.8608 16.3086 50.6846 16.914 51.3528 17.7014C52.021 18.489 52.528 19.4411 52.8736 20.5577C53.2308 21.6626 53.4093 22.9026 53.4093 24.2778C53.4093 25.6531 53.2308 26.8932 52.8736 27.9979C52.528 29.1028 52.021 30.0491 51.3528 30.8366C50.6846 31.6241 49.8608 32.2294 48.8814 32.6526C47.9136 33.0757 46.8134 33.2873 45.5805 33.2873C44.3477 33.2873 43.2418 33.0757 42.2624 32.6526C41.2946 32.2294 40.4708 31.6241 39.7911 30.8366C39.1227 30.0491 38.6101 29.1028 38.2529 27.9979C37.9072 26.8932 37.7344 25.6531 37.7344 24.2778C37.7344 22.9026 37.9072 21.6626 38.2529 20.5577C38.6101 19.4411 39.1227 18.489 39.7911 17.7014C40.4708 16.914 41.2946 16.3086 42.2624 15.8855C43.2418 15.4507 44.3477 15.2331 45.5805 15.2331ZM45.5805 31.965C46.606 31.965 47.4988 31.7887 48.2592 31.4361C49.0312 31.0717 49.6706 30.5545 50.1776 29.8845C50.6961 29.2145 51.082 28.4094 51.3355 27.469C51.589 26.517 51.7157 25.4533 51.7157 24.2778C51.7157 23.1143 51.589 22.0563 51.3355 21.1043C51.082 20.1522 50.6961 19.3412 50.1776 18.6712C49.6706 17.9895 49.0312 17.4665 48.2592 17.102C47.4988 16.7377 46.606 16.5554 45.5805 16.5554C44.5551 16.5554 43.6564 16.7377 42.8845 17.102C42.1241 17.4665 41.4847 17.9895 40.9662 18.6712C40.4593 19.3412 40.0733 20.1522 39.8083 21.1043C39.5548 22.0563 39.4281 23.1143 39.4281 24.2778C39.4281 25.4533 39.5548 26.517 39.8083 27.469C40.0733 28.4094 40.4593 29.2145 40.9662 29.8845C41.4847 30.5545 42.1241 31.0717 42.8845 31.4361C43.6564 31.7887 44.5551 31.965 45.5805 31.965ZM59.7904 19.7466C60.0555 19.0297 60.3551 18.3949 60.6891 17.8426C61.0348 17.2783 61.4266 16.8024 61.8643 16.4144C62.3136 16.0265 62.8091 15.7327 63.3506 15.5329C63.9036 15.3213 64.5143 15.2156 65.1825 15.2156C65.5397 15.2156 65.8911 15.2508 66.2368 15.3213C66.5824 15.3801 66.8876 15.4918 67.1527 15.6562L67.0144 16.8199C66.9569 17.008 66.8473 17.102 66.6861 17.102C66.5478 17.102 66.3347 17.0609 66.0466 16.9787C65.7701 16.8963 65.4015 16.8552 64.9405 16.8552C64.2723 16.8552 63.679 16.961 63.1605 17.1725C62.6535 17.3724 62.1927 17.678 61.7779 18.0894C61.3747 18.5008 61.0175 19.012 60.7064 19.6233C60.4069 20.2227 60.1303 20.9162 59.8769 21.7037V33.0581H58.2178V15.5152H59.0993C59.2951 15.5152 59.4333 15.5564 59.5139 15.6387C59.5946 15.7209 59.6464 15.862 59.6695 16.0618L59.7904 19.7466ZM75.3105 33.3401C74.1468 33.3401 73.2367 33.0111 72.5799 32.3529C71.9347 31.6946 71.6121 30.6779 71.6121 29.3027V17.3136H69.1407C69.014 17.3136 68.9103 17.2783 68.8296 17.2078C68.749 17.1373 68.7087 17.0374 68.7087 16.9082V16.2558L71.6467 16.0442L72.0615 9.76755C72.0846 9.66177 72.1306 9.56774 72.1997 9.48546C72.2689 9.40317 72.3668 9.36203 72.4935 9.36203H73.2712V16.0618H78.6977V17.3136H73.2712V29.2145C73.2712 29.6964 73.3289 30.1137 73.444 30.4664C73.5707 30.8072 73.7378 31.0893 73.9452 31.3126C74.1642 31.5359 74.4176 31.7005 74.7056 31.8063C74.9937 31.912 75.3048 31.965 75.6388 31.965C76.0536 31.965 76.4107 31.9062 76.7103 31.7887C77.0099 31.6594 77.2691 31.5242 77.4881 31.3831C77.707 31.2304 77.8855 31.0952 78.0238 30.9776C78.162 30.8484 78.2715 30.7837 78.3522 30.7837C78.4443 30.7837 78.5365 30.8424 78.6286 30.96L79.0779 31.7005C78.6402 32.1941 78.0814 32.5938 77.4016 32.8994C76.7334 33.1932 76.0364 33.3401 75.3105 33.3401ZM142.475 22.5147C142.475 21.5744 142.343 20.734 142.078 19.9936C141.824 19.2413 141.461 18.6066 140.989 18.0894C140.517 17.5722 139.952 17.1784 139.296 16.9082C138.65 16.626 137.935 16.4849 137.152 16.4849C136.266 16.4849 135.471 16.626 134.767 16.9082C134.065 17.1902 133.454 17.5957 132.935 18.1247C132.428 18.6536 132.019 19.2883 131.709 20.0288C131.397 20.7693 131.19 21.598 131.086 22.5147H142.475ZM131 23.5902V23.9252C131 25.2417 131.15 26.3994 131.45 27.3985C131.749 28.3976 132.175 29.238 132.729 29.9198C133.281 30.5897 133.95 31.0952 134.733 31.4361C135.517 31.7769 136.392 31.9473 137.36 31.9473C138.224 31.9473 138.972 31.8534 139.606 31.6652C140.24 31.4654 140.77 31.248 141.196 31.0129C141.635 30.766 141.98 30.5486 142.233 30.3606C142.487 30.1608 142.672 30.0608 142.787 30.0608C142.937 30.0608 143.052 30.1196 143.132 30.2371L143.582 30.8013C143.304 31.1539 142.937 31.4831 142.475 31.7887C142.026 32.0943 141.519 32.3587 140.955 32.5821C140.401 32.7937 139.803 32.9641 139.157 33.0933C138.524 33.2226 137.884 33.2873 137.239 33.2873C136.064 33.2873 134.992 33.0816 134.024 32.6702C133.056 32.2471 132.227 31.6358 131.535 30.8366C130.844 30.0373 130.309 29.0617 129.928 27.9099C129.559 26.7462 129.376 25.418 129.376 23.9252C129.376 22.6676 129.548 21.5098 129.894 20.452C130.252 19.3823 130.759 18.4655 131.415 17.7014C132.083 16.9257 132.895 16.3204 133.851 15.8855C134.82 15.4507 135.914 15.2331 137.135 15.2331C138.103 15.2331 139.002 15.4036 139.831 15.7445C140.66 16.0853 141.381 16.5848 141.991 17.2431C142.602 17.8896 143.08 18.6888 143.425 19.6409C143.783 20.593 143.962 21.6861 143.962 22.9203C143.962 23.1788 143.927 23.3551 143.858 23.4492C143.789 23.5432 143.673 23.5902 143.512 23.5902H131ZM155.419 15.2331C156.652 15.2331 157.752 15.4507 158.72 15.8855C159.7 16.3086 160.523 16.914 161.192 17.7014C161.86 18.489 162.367 19.4411 162.712 20.5577C163.07 21.6626 163.248 22.9026 163.248 24.2778C163.248 25.6531 163.07 26.8932 162.712 27.9979C162.367 29.1028 161.86 30.0491 161.192 30.8366C160.523 31.6241 159.7 32.2294 158.72 32.6526C157.752 33.0757 156.652 33.2873 155.419 33.2873C154.187 33.2873 153.08 33.0757 152.102 32.6526C151.133 32.2294 150.309 31.6241 149.629 30.8366C148.961 30.0491 148.448 29.1028 148.091 27.9979C147.746 26.8932 147.573 25.6531 147.573 24.2778C147.573 22.9026 147.746 21.6626 148.091 20.5577C148.448 19.4411 148.961 18.489 149.629 17.7014C150.309 16.914 151.133 16.3086 152.102 15.8855C153.08 15.4507 154.187 15.2331 155.419 15.2331ZM155.419 31.965C156.444 31.965 157.338 31.7887 158.099 31.4361C158.871 31.0717 159.509 30.5545 160.016 29.8845C160.535 29.2145 160.921 28.4094 161.174 27.469C161.428 26.517 161.555 25.4533 161.555 24.2778C161.555 23.1143 161.428 22.0563 161.174 21.1043C160.921 20.1522 160.535 19.3412 160.016 18.6712C159.509 17.9895 158.871 17.4665 158.099 17.102C157.338 16.7377 156.444 16.5554 155.419 16.5554C154.394 16.5554 153.495 16.7377 152.723 17.102C151.962 17.4665 151.323 17.9895 150.804 18.6712C150.297 19.3412 149.911 20.1522 149.646 21.1043C149.393 22.0563 149.266 23.1143 149.266 24.2778C149.266 25.4533 149.393 26.517 149.646 27.469C149.911 28.4094 150.297 29.2145 150.804 29.8845C151.323 30.5545 151.962 31.0717 152.723 31.4361C153.495 31.7887 154.394 31.965 155.419 31.965ZM169.716 29.2322C170.049 29.7376 170.396 30.1666 170.753 30.5192C171.121 30.8601 171.507 31.1422 171.91 31.3655C172.314 31.5771 172.74 31.7299 173.189 31.824C173.65 31.9179 174.134 31.965 174.641 31.965C175.655 31.965 176.542 31.7769 177.303 31.4008C178.062 31.0247 178.696 30.4957 179.203 29.814C179.722 29.1205 180.108 28.2977 180.361 27.3457C180.626 26.3818 180.759 25.3239 180.759 24.1721C180.759 21.5627 180.287 19.6468 179.341 18.4243C178.397 17.1902 177.044 16.5731 175.28 16.5731C174.139 16.5731 173.109 16.8729 172.187 17.4723C171.266 18.0717 170.441 18.9063 169.716 19.9759V29.2322ZM169.646 18.6712C170.407 17.6134 171.294 16.773 172.307 16.15C173.333 15.527 174.48 15.2156 175.747 15.2156C177.856 15.2156 179.497 15.9619 180.672 17.4546C181.86 18.9474 182.452 21.1866 182.452 24.1721C182.452 25.4533 182.286 26.6522 181.951 27.7688C181.629 28.8737 181.145 29.8374 180.499 30.6603C179.866 31.4714 179.082 32.1119 178.149 32.5821C177.227 33.0522 176.162 33.2873 174.952 33.2873C173.789 33.2873 172.78 33.0699 171.928 32.6349C171.075 32.2001 170.337 31.5594 169.716 30.7132V39.2642H168.057V15.5152H168.972C169.26 15.5152 169.427 15.6622 169.474 15.956L169.646 18.6712ZM189.115 7.405V33.0581H187.456V7.405H189.115ZM207.165 22.5147C207.165 21.5744 207.032 20.734 206.767 19.9936C206.514 19.2413 206.151 18.6066 205.679 18.0894C205.206 17.5722 204.642 17.1784 203.985 16.9082C203.34 16.626 202.625 16.4849 201.841 16.4849C200.954 16.4849 200.159 16.626 199.457 16.9082C198.754 17.1902 198.143 17.5957 197.625 18.1247C197.118 18.6536 196.709 19.2883 196.398 20.0288C196.087 20.7693 195.88 21.598 195.776 22.5147H207.165ZM195.689 23.5902V23.9252C195.689 25.2417 195.839 26.3994 196.139 27.3985C196.438 28.3976 196.864 29.238 197.417 29.9198C197.971 30.5897 198.639 31.0952 199.423 31.4361C200.206 31.7769 201.081 31.9473 202.049 31.9473C202.913 31.9473 203.662 31.8534 204.296 31.6652C204.93 31.4654 205.46 31.248 205.886 31.0129C206.323 30.766 206.669 30.5486 206.923 30.3606C207.176 30.1608 207.36 30.0608 207.475 30.0608C207.625 30.0608 207.74 30.1196 207.821 30.2371L208.27 30.8013C207.994 31.1539 207.625 31.4831 207.165 31.7887C206.715 32.0943 206.209 32.3587 205.643 32.5821C205.091 32.7937 204.491 32.9641 203.847 33.0933C203.213 33.2226 202.574 33.2873 201.928 33.2873C200.753 33.2873 199.682 33.0816 198.713 32.6702C197.746 32.2471 196.916 31.6358 196.225 30.8366C195.534 30.0373 194.998 29.0617 194.618 27.9099C194.249 26.7462 194.065 25.418 194.065 23.9252C194.065 22.6676 194.238 21.5098 194.584 20.452C194.94 19.3823 195.447 18.4655 196.104 17.7014C196.772 16.9257 197.585 16.3204 198.541 15.8855C199.508 15.4507 200.603 15.2331 201.824 15.2331C202.792 15.2331 203.69 15.4036 204.521 15.7445C205.35 16.0853 206.071 16.5848 206.68 17.2431C207.291 17.8896 207.77 18.6888 208.115 19.6409C208.472 20.593 208.651 21.6861 208.651 22.9203C208.651 23.1788 208.616 23.3551 208.547 23.4492C208.478 23.5432 208.363 23.5902 208.202 23.5902H195.689Z" fill="black" stroke="black" stroke-width="2"/>
</g>
</svg>
